<svg width="234" height="163" fill="none" xmlns="http://www.w3.org/2000/svg"><path d="M62.618 142.209c.293.407.615.804.851 1.24-1.41.52-2.942.652-4.38 1.116-2.232.842-4.399 2.015-6.158 3.642 3.065-.378 6.007-1.353 8.788-2.677 2.12-.984 4.39-1.987.899-3.321zm1.04 1.135a1.36 1.36 0 01-.038.038c.01-.009.02-.028.038-.038zM57.916 142.604c-3.538.577-6.915 1.864-10.226 3.188-1.693.568-3.311 1.476-5.118 1.618-.813-.18-1.495-.757-2.308-.974-2.299-.965-4.806-.814-7.218-1.192.284.189.615.35.927.501 1.287.662 2.658 1.145 3.888 1.892 2.043 1.334 3.188 2.668 5.828 1.977 5.108-.984 9.847-3.368 14.379-5.856.832-.473 1.674-.955 2.44-1.542-.86.133-1.73.265-2.592.388zM31.667 146.806c-1.949.596-3.832 1.372-5.667 2.261-.624.161-1.125.738-.898 1.4.482 1.107 2.005 1.154 2.913 1.816.615.294.52 1.013.52 1.58 1.088-1.343.161-2.526-.936-3.443 2.422-.927 4.711-2.309 6.385-4.324-.775.199-1.56.445-2.317.71zM26.936 153.134c-1.447.898-3.122 1.305-4.692 1.939-2.081.88-4.068 2.166-5.534 3.888 3.803-.937 7.909-2.498 10.226-5.827zM34.135 154.298c-2.138.587-4.143 1.514-6.243 2.223-2.403.795-4.92 1.609-6.84 3.321-.038-.01-.085-.028-.123-.038.019.01.038.01.057.019-1.04-.331-2.12-.587-3.188-.832 1.031.86 2.043 1.873 3.264 2.421.548.104 1.097-.17 1.58-.397 2.014-.795 4.171-1.211 6.196-1.987 3.178-1.352 5.846-3.651 8.835-5.335-.009 0-.009.009-.019.009.209-.094.436-.179.644-.265-.133-.009-.265-.019-.407-.019-1.296 0-2.535.502-3.756.88zM21.1 159.832c-.01 0-.018.01-.018.01s.009-.01.018-.01zM55.59 150.75c.294.237.615.464.89.719-3.15.842-6.462 1.202-9.508 2.403-.558.227-1.088.605-1.712.634-1.466-.237-2.829-.88-4.304-1.097a16.314 16.314 0 00-3.037-.228c.653.35 1.305.729 1.968 1.079 2.071.927 3.907 2.98 6.31 2.828 1.447-.245 2.771-.993 4.143-1.485 2.157-.861 4.248-1.844 6.187-3.131 1.826-.955.303-1.599-.937-1.722zm.19.871c-.029.009-.057.009-.076.019.028-.01.057-.01.075-.019z" fill="#fff" fill-opacity=".1"/><path d="M52.799 148.46c.643 1.249 1.873 2.082 3.169 2.536-.672-1.24-1.94-1.949-3.17-2.536z" fill="#fff" fill-opacity=".1"/><path d="M71.321 137.989c-11.759.691-23.46 2.649-34.86 5.581-7.918 1.732-15.77 3.794-23.348 6.679-3.69 1.58-11.673 3.794-12.43 8.193-.407 5.458 9.725 4.067 13.12 3.575 3.671-.681 1.363-.501-.67-.841-3.189-.473-7.058-.294-9.754-2.205 6.726-6.716 18.125-9.431 26.999-12.364 5.288-1.731 10.756-2.734 16.233-3.68 7.427-1.428 25.306-4.21 31.786-.747-2.346 3.509-8.031 6.054-11.655 8.258 4.674-1.144 9.583-2.431 13.453-5.411 1.948-1.513 2.251-4.446-.057-5.77-2.687-1.372-5.865-1.306-8.817-1.268z" fill="#fff" fill-opacity=".1"/><path d="M69.95 149.161c-3.264.719-6.537 1.504-9.706 2.592-1.977.681-3.917 1.523-5.667 2.677.653.01 1.334-.019 1.996-.066 4.797-.548 9.366-2.611 13.377-5.203zM44.029 156.862c-.606.047-1.211.104-1.807.199.019 0 .047-.01.066-.01-4.881.606-9.81 1.154-14.54 2.564-2.564.984-4.068 1.069-.199 1.249 4.513.075 8.959-1.051 13.254-2.328a46.87 46.87 0 005.014-1.807c-.587.019-1.202.086-1.788.133zm-1.817.199c-.019 0-.037.009-.056.009.019-.009.038-.009.056-.009zM51.153 116.714c2.015 4.059 6.121 6.49 9.555 9.233 5.59 4.693 12.024 8.24 18.06 12.298.482.256.888 1.883.718.549-.53-2.299-4.001-4.957-5.742-6.575-4.02-3.49-8.476-6.518-13.055-9.214-3.283-1.92-6.953-3.415-9.536-6.291zm.549.568l.01.009-.01-.009zm.303.284l.019.019c-.01-.01-.02-.01-.02-.019zM16.937 126.249c-3.434 5.771-6.896 10.946-9.829 16.962-2.005 3.68-3.15 7.748-4.597 11.674a32.453 32.453 0 002.97-3.557c.984-1.277 1.675-2.734 2.498-4.115.917-1.627 2.024-3.15 2.838-4.834 2.44-5.213 4.796-10.52 6.12-16.13zM47.765 108.435c-4.162.511-8.201 1.959-12.09 3.491-4.389 1.75-8.674 3.737-12.59 6.395-1.723 1.192-5.705 3.775-6.16 5.771-.132.7.2 1.409.72 1.864-.294-.615-.37-1.382.123-1.921 2.96-2.157 6.518-3.462 9.706-5.279 4.74-2.469 9.431-5.023 14.247-7.35 2.365-1.041 4.663-2.45 7.246-2.866.038-.01.085.009.113 0-.406-.152-.88-.114-1.315-.105zm-30.328 16.31c0 .009 0 .019-.01.028 0-.009 0-.019.01-.028zm.066.832s0 .01.01.01l-.01-.01z" fill="#fff" fill-opacity=".1"/><path d="M50.14 109.865c-1.532.87-3.055 2.554-2.298 4.427.728 1.684 2.658 2.327 4.238 2.97a36.924 36.924 0 00-.974-1.135c-2.394-2.289-2.365-3.368-.965-6.262zM46.698 90.659c.094.104.227.198.265.34-2.138 1.514-4.91 2.015-7.35 2.961-5.658 2.053-11.476 3.642-17.095 5.818-4.2 1.892-12.497 5.884-11.371 11.475.208 1.041 1.201 1.58 2.185 1.59-.454-.256-.965-.521-1.192-1.013-.662-3.926 5.241-6.234 8.013-7.842 4.531-2.516 9.45-4.162 14.341-5.827-.094.037-.189.066-.283.104 1.021-.123 15.353-6.717 12.487-7.606z" fill="#fff" fill-opacity=".1"/><path d="M14.392 112.21c-3.784.786 1.05.53 2.148 1.76 1.258 1.201 1.693 2.951 2.61 4.38.285.388.824.586 1.278.728-.18-.208-.379-.435-.549-.671-.463-.937-.274-2.072-.615-3.065-.492-2.252-2.592-3.775-4.872-3.132z" fill="#fff" fill-opacity=".1"/><path d="M35.602 100.8c-1.419.01-2.79.388-4.124.823.047-.019.085-.028.132-.047-5.572 2.062-13.121 4.096-14.682 10.662-.076.463-.057.955-.019 1.428.293-.643.643-1.296 1.126-1.826 2.393-2.62 5.723-4.011 8.665-5.903 2.98-1.684 5.629-4.058 8.902-5.137zm-5.733 1.4c-.038.01-.075.029-.113.038.038-.009.075-.028.113-.038zm-12.8 11.116c0 .009-.009.009-.009.019.01-.01.01-.01.01-.019zM47.295 92.732c-6.698 2.857-6.916 9.167-2.696 14.408 1.627 1.287 1.116.918.463-.511-.766-2.734-1.277-5.638-.728-8.457.492-2.006 1.835-3.737 2.96-5.44zM9.756 96.63c.908.785 1.599 1.778 2.346 2.705.87.88 1.693 1.779 2.147 2.942.663-2.696-2.024-5.155-4.493-5.647zM37.74 76.472c-6.13 1.352-12.212 3.121-17.841 5.96C15.765 84.56 8.045 88.106 7.07 93.025c-.095.795.123 1.647.747 2.176-.558-1.069.029-2.289.804-3.093 2.318-2.252 5.364-3.529 8.193-5.014 7.142-3.992 14.71-7.095 22.288-10.16 1.05-.435 2.147-.785 3.207-1.21-1.523.094-3.065.415-4.57.747zM41.986 77.709c-2.933 1.76-4.796 4.806-3.822 8.268.785 2.526 1.987 4.948 3.708 6.972-.132-.586-.303-1.182-.444-1.778-.549-3.141-1.694-6.33-1.117-9.536.37-1.39 1.173-2.602 1.675-3.926z" fill="#fff" fill-opacity=".1"/><path d="M24.892 86.395c-5.043 1.353-10.34 3.538-13.348 8.022a9.746 9.746 0 00-.767 1.58c1.259-1.031 2.715-1.722 4.125-2.526 3.52-1.76 6.67-4.105 9.97-6.205 2.091-1.278 3.454-1.703.02-.87zM12.47 93.178l.056-.057c-.018.02-.037.038-.056.057zm.056-.057c.029-.028.048-.056.076-.085-.028.029-.047.057-.075.085zM9.424 77.833c-.132 1.627.076 3.292.151 4.929.275 1.457.994 2.8 1.798 4.03.01-.199.01-.407.01-.606v.048c-.105-2.148-.294-4.38-.956-6.433-.303-.672-.7-1.306-1.003-1.968z" fill="#fff" fill-opacity=".1"/><path d="M38.26 58.507c-1.504.463-3.074.662-4.588 1.106.038-.009.066-.019.104-.028-8.495 2.223-22.997 5.837-28.815 12.582-1.836 2.11-2.8 5.912-.388 7.946 1.05.861 2.535.823 3.765.454-.974-.122-2.006-.34-2.715-1.068-3.737-5.232 9.923-11.334 13.604-13.055 6.271-2.753 12.837-5.024 19.033-7.937zM37.426 61.55c-3.122 1.22-4.21 5.137-2.932 8.07.747 2.128 1.466 4.446 3.358 5.846-.236-.615-.51-1.24-.69-1.892-.36-1.532-.379-3.122-.729-4.664-.785-2.469-.558-5.222.993-7.36zm-.463.738c0 .01-.01.01-.01.02.01-.01.01-.01.01-.02z" fill="#fff" fill-opacity=".1"/><path d="M21.581 68.986c-4.304.823-8.713 2.536-11.286 6.282-1.39 2.365-1.371 2.034.757.71 3.831-2.11 7.55-4.409 11.343-6.594 2.554-1.22.482-.549-.814-.398zM32.082 43.585c-1.646 1.183-3.661 1.646-5.563 2.233a117.4 117.4 0 01-6.716 1.835c-3.813.975-7.398 2.678-10.86 4.522-2.602 1.4-10.794 6.5-8.562 10 .208.198.937.586.416.132-1.721-2.356 6.036-5.875 7.682-6.897-.019.01-.047.02-.066.038 1.835-.965 3.718-1.835 5.553-2.79-.02.01-.047.019-.066.038 4.219-2.167 8.826-3.434 13.026-5.648 1.826-.946 3.85-1.826 5.156-3.463zm-17.577 8.798a.442.442 0 01-.095.048c.029-.02.057-.029.095-.048zm-.123.057a3.334 3.334 0 00-.18.095c.01-.01.029-.01.038-.02-.038.02-.066.039-.104.057.076-.037.152-.075.218-.113-.01 0-.02.01-.029.01l.057-.029zm-.18.095l-.056.028.056-.028zm-.066.038c-.01 0-.01 0 0 0-.01 0-.01 0 0 0zm-.038.009c-.028.01-.057.028-.085.038.038-.01.066-.02.085-.038zm-.198.104c-.085.038-.161.085-.246.123a1.98 1.98 0 00.246-.123zm.397-.199l-.057.029c.028-.02.057-.029.095-.048-.01 0-.02.01-.038.02zM1.726 62.489c3.907 1.92 3.273 2.317 4.74 5.96.207.321.529.577.85.766a4.26 4.26 0 01-.34-.87c-.142-1.155.17-2.347-.227-3.482-.606-2.128-3.065-2.696-5.023-2.374zM30.948 47.08c-1.438 2.705-.946 6.082.454 8.712.407.7.785 1.523 1.57 1.863.133.067.767.36.587.18-1.154-1.116-1.06-2.847-1.343-4.323-.293-2.176-1.031-4.267-1.268-6.433zm2.602 10.746s.01 0 0 0c.01 0 0 0 0 0z" fill="#fff" fill-opacity=".1"/><path d="M17.4 54.2c-5.051.369-9.517 2.97-11.465 7.767 3.793-2.46 7.672-4.816 11.57-7.105-.03.01-.057.028-.086.038 1.722-.88 2.393-.842-.019-.7zM5.253 45.563c0 .047 0 .085-.01.133v.01c-.189 2.298-.605 4.625-.388 6.924 1.438-2.11 1.656-4.844.398-7.067zM20.163 30.192c-1.6.984-3.52 1.287-5.232 2.063-2.138.87-4.266 1.788-6.3 2.885-3.046 1.731-10.066 5.97-7.143 10.113.492.454 1.22.454 1.845.501-.35-.227-.766-.416-1.069-.728-1.457-2.829 4.598-5.317 6.376-6.764 2.573-1.675 5.07-3.453 7.606-5.194 1.277-.974 2.914-1.608 3.917-2.876zm-.55.331c-.008 0-.008.01-.018.01.01 0 .019 0 .019-.01zM19.502 32.708c-1.911 2.535.51 5.714 2.147 7.739 1.599 1.939 4.162 2.393 6.196 3.67 1.92 1.249.946.435.161-.719-.662-.87-1.56-1.504-2.422-2.157-1.173-.87-2.157-1.977-3.074-3.112-1.211-1.646-3.292-3.17-3.008-5.42z" fill="#fff" fill-opacity=".1"/><path d="M8.837 39.462c-2.696.748-4.664 3.084-5.629 5.638a34.378 34.378 0 002.393-1.702c1.561-1.098 2.838-2.583 4.532-3.482.473-.236.955-.463 1.428-.69a8.795 8.795 0 00-2.724.236zm1.788.208c-.01.01-.02.01-.029.02.01-.01.02-.01.029-.02zM11.487 23.92c-2.233.397-3.841 2.658-4.182 4.805a21.2 21.2 0 00.029 5.582 38.063 38.063 0 001.513-3.841c.407-1.466.994-2.895 2.205-3.898.917-1.097 1.948.17 2.734.776.946.814 1.995 1.476 3.083 2.072-.425-.615-.87-1.258-1.296-1.883-1.021-1.485-1.939-3.793-4.086-3.613zM96.08.024c-5.497 1.24-4.93 21.654-3.823 26.242.142.719.322 1.447.511 2.148.199-1.391.397-2.782.492-4.182.634-5.364-.274-18.267 3.188-21.995.51-.009.672.805 1.04 1.107 1.126 1.495 1.997 3.16 2.754 4.872 5.666 14.55 7.88 30.291 8.892 45.806v-.029c.341 7.597.851 20.103-3.254 26.612-3.709-3.993-5.421-11.144-6.868-16.395-1.467-6.868-2.97-13.736-4.863-20.51-.33 10.057 1.873 19.99 4.73 29.592.965 2.895 1.873 5.922 3.68 8.42 2.677 2.847 5.468 2.336 6.849-1.372 1.05-2.933.918-6.14 1.06-9.205.113-3.812.009-7.625-.104-11.428-.662-15.533-2.337-31.142-6.093-46.24-.983-3.595-1.977-7.247-3.689-10.577-.842-1.665-2.554-3.093-4.503-2.866zm.368 2.166h.019c-.01.01-.01 0-.019 0zm5.402 10.245c.009.038.028.076.038.114-.01-.038-.019-.076-.038-.114zm.066.18l.028.085-.028-.085zm7.218 41.416c0 .029 0 .066.009.095-.009-.029-.009-.057-.009-.095z" fill="#fff" fill-opacity=".1"/><path d="M95.718 32.074c-1.4 4.285-1.92 9.072-.246 13.348.805 1.145 2.526.899 3.728 1.324-3.491-2.705-2.753-1.4-2.763-5.979.208-2.923.114-5.874-.719-8.693zM99.732 47.466c.265 1.996-.141 3.973-.245 5.96-.086 2.005-.095 4.03.113 6.035 0-.019 0-.029-.01-.047l.029.293c-.01-.066-.01-.123-.019-.19.378 3.056.757 6.121 1.542 9.101.123.606.359 1.467 1.154 1.287 1.107-.464 1.589-1.75 2.148-2.734-.672.51-1.334 1.088-2.11 1.457-.426-5.118-.322-10.283-.927-15.392-.189-2.005-.454-4.105-1.675-5.77z" fill="#fff" fill-opacity=".1"/><path d="M103.762 35.346c-.01 3.567-.568 7.124-.388 10.69-2.1.274-2.053 2.507-1.968 4.153.028 3.907.501 7.795 1.239 11.626.284 1.542.719 3.066 1.126 4.57.482-3.037.662-6.14.322-9.205-.18-2.677-.681-5.392-.436-8.079 1.155.18 2.422-.35 2.725-1.56.331-1.628-.587-3.198-.861-4.778-.7-2.44-1.031-5.005-1.759-7.417zM96.355 11.442c-3.009 1.258-.738 6.282-.114 8.514.047-1.74-.085-3.529.36-5.231.832 4.72 1.863 9.422 2.128 14.228.123 1.4.104 2.951 1.003 4.115.634.7 1.627 1.06 2.535.747-.236-.066-.492-.113-.728-.208-1.883-.974-.889-3.358-.88-5.023.161-2.015.009-4.05-.274-6.045-.407-2.65-1.24-5.203-1.94-7.777-.435-1.192-.208-3.67-2.09-3.32z" fill="#fff" fill-opacity=".1"/><path d="M95.918 19.294a34.782 34.782 0 00.18 9.403c.151 1.003.425 1.987.596 2.99.047.643-.861.775-1.353.766 3.453 1.892 2.705-3.604 2.497-5.506-.378-2.61-1.41-5.08-1.92-7.653zm.785 12.563v0zm-.028.104l-.029.057c.02-.02.029-.038.029-.057zM100.459 2.143c4.787 6.159 11.002 10.85 17.217 15.448a86.643 86.643 0 005.582 4.011c1.088.767 2.261 1.467 3.604 1.646 2.006.142 3.945-.643 5.931-.851a21.116 21.116 0 001.864-.416c-.908-.123-1.845-.275-2.753-.407-1.665-.34-3.491.227-5.051-.549-2.687-2.052-5.147-4.436-8.042-6.243-3.443-2.337-6.953-4.56-10.472-6.764-2.762-1.779-5.26-3.936-7.88-5.875zM139.2 52.726c-2.781.189-5.667.407-8.23 1.56-.814.37-1.599.767-2.327 1.297 1.456-.19 2.942-.388 4.427-.473 2.441 0 4.862-.331 7.171-1.164.794-.255 1.627-.445 2.421-.681-1.116-.36-2.289-.577-3.462-.54z" fill="#fff" fill-opacity=".1"/><path d="M131.091 53.613c-1.901 1.107-3.311 2.838-4.91 4.323l.142-.142c-4.361 4.4-8.504 9.035-12.326 13.907-1.816 2.232-3.065 4.843-4.844 7.095 2.857-1.467 4.901-4.097 7.19-6.291 5.856-5.506 10.094-12.421 14.748-18.892zM131.289 32.898c-1.154 6.13-.284 12.345-.038 18.503 3.68-6.338.871-11.91.038-18.503zM135.915 19.814c1.173 1.4 1.958 3.066 2.743 4.702 1.921 3.936 3.33 8.088 4.135 12.393.955 4.664 2.09 9.299 2.667 14.029.114 1.126.199 2.261.284 3.387a28.3 28.3 0 00.7-2.422c1.419-6.679-.974-17.094-4.03-23.158.038.066.066.142.104.208-1.059-2.157-2.412-4.153-3.793-6.12-.823-1.089-1.675-2.233-2.81-3.018zM151.581 48.628c-2.346.237-4.172 2.015-4.172 4.418.379-.463.738-.974 1.192-1.381 2.346-1.93 5.828-.832 8.259.397.955.587 3.093 3.283 4.143 1.996-.094.02-.208.057-.312.076h.019c-1.23-.293-1.816-2.573-2.791-3.434-1.636-1.56-4.068-2.45-6.338-2.072zM168.808 45.934c-3.169.36-3.86 3.926-5.137 6.272-.36.728-.833 1.381-1.514 1.835 1.022-.047 1.921-.615 2.64-1.324 1.286-1.126 1.986-2.782 3.301-3.87 2.441-1.163 6.736 1.703 8.968 2.848.483.284.956.568 1.486.738-.729-.795-1.315-1.712-2.063-2.498-2.062-1.986-4.578-4.36-7.681-4.001zM185.752 45.13c-2.261.198-4.314 1.74-5.232 3.802a29.573 29.573 0 00-1.333 3.197 27.734 27.734 0 001.56-1.428c3.028-3.69 5.856-3.368 9.801-1.306.927.483 1.873.947 2.753 1.524.577.482 1.381.813 2.072.34.955-.634 1.286-1.835 1.759-2.81-.671.55-1.305 1.211-2.109 1.552-.379.085-.587-.464-.871-.662-2.261-2.204-5.061-4.532-8.4-4.21zm9.649 4.672c-.009.01-.028.02-.038.029a.124.124 0 00.038-.029zm-.7.199c.019 0 .038.01.057.01-.019 0-.038-.01-.057-.01z" fill="#fff" fill-opacity=".1"/><path d="M204.396 41.336c-3.367.132-5.742 3.055-6.887 5.978-.142.426-.293.861-.435 1.278.871-.757 1.684-1.561 2.573-2.29-.009.01-.019.02-.028.02 4.229-3.946 7.398-3.217 11.343.557.359.256.785.123 1.144-.038-.842.076-1.05-.747-1.381-1.352-1.154-2.413-3.547-4.333-6.329-4.153zM220.536 33.92c-3.472.047-5.998 2.998-7.01 6.082-.53 1.485-.425 3.075-.548 4.617-.057.823-.171 1.665-.634 2.374a5.43 5.43 0 00.558-.388c1.211-1.135 1.542-2.895 2.11-4.399 1.239-3.16 3.963-6.054 7.615-5.657a9.262 9.262 0 013.595 1.107c1.93.956 2.828-.662 2.459-2.422-1.343 4.295-2.043-1.674-8.145-1.315zm7.256 2.894c-.009 0-.019.01-.019.01 0-.01.01-.01.019-.01zm-14.852 8.287v.028c-.01-.009 0-.018 0-.028z" fill="#fff" fill-opacity=".1"/><path d="M232.55 22.671c.17.095.397.142.52.313-.009-.01-.019-.029-.028-.038.946 1.608-3.273 2.166-4.711 4.768-1.514 2.44-.416 5.42.397 7.918.568-1.92.379-3.983 1.06-5.884.898-2.233 3.405-3.406 4.209-5.658.048-.756-.596-1.693-1.447-1.419zm.634.956V23.626zm0 .085l-.029.085.029-.085zM223.384 20.721c1.892 3.614 5.657 2.79 8.883 1.883-2.914-.776-6.178-.331-8.883-1.883zM202.694 11.016c2.318 4.361 3.34 9.186 4.522 13.935 1.608 5.638 2.687 11.39 3.813 17.132.283 1.135.634 2.26.577 3.443.179-.435.359-.899.444-1.362 1.06-7.956-.908-15.893-4.058-23.168-1.41-3.5-2.999-6.972-5.298-9.98zm1.968 4.399c0 .01.01.019.01.028a.037.037 0 00-.01-.028zm6.934 29.24V44.657zM184.332 14.29c4.238 10.055 8.098 20.376 10.066 31.142.227 1.163.34 2.346.132 3.519.236-.379.454-.804.624-1.23 1.372-4.787.171-9.914-1.201-14.569-2.081-6.764-5.771-12.988-9.621-18.863zM168.194 20.778c1.031 1.277 1.713 2.743 2.148 4.313 0-.01-.01-.019-.01-.028.01.038.029.076.038.114l-.028-.086c.87 2.725 1.863 5.402 2.696 8.136.776 2.583 1.353 5.222 2.214 7.786 1.002 3.301 2.45 6.546 2.847 9.99 2.157-6.235-2.327-17.804-5.411-23.443-1.315-2.355-2.214-5.165-4.494-6.782zm2.659 5.836c0 .01.009.029.009.038-.009-.01-.009-.019-.009-.038zm.009.048c.01.038.019.066.038.104-.01-.038-.028-.066-.038-.104zM153.416 21.906c1.939 2.951 2.318 6.603 3.406 9.914 1.532 6.376 2.544 12.885 4.541 19.128.16.643.17 1.325-.228 1.873.332-.227.663-.51.805-.908.652-1.996.179-4.172.085-6.225-.303-4.777-1.675-9.394-3.415-13.83-.804-2.12-1.769-4.182-2.715-6.244-.615-1.343-1.296-2.762-2.479-3.708zm7.928 28.966c0 .01.009.029.009.038-.009-.01-.009-.019-.009-.038z" fill="#fff" fill-opacity=".1"/><path d="M219.211 18.49c1.268 2.289 2.308 4.7 3.188 7.16.445 1.505.965 3 1.693 4.4.89 2.071 2.81 4.086 2.772 6.404 1.608-2.687-.416-6.395-1.428-9.015-1.391-3.378-3.491-6.537-6.225-8.95zM215.162 12.719c-2.393-.01-2.46 2.904-3.784 4.285-1.154 1.58-2.724.369-4.058-.246a21.587 21.587 0 00-1.561-.757c.548.795 1.116 1.58 1.816 2.252 2.488 3.093 6.263.898 7.322-2.252.18-.369.246-1.022.804-.832 1.949.435 3.605 1.617 5.459 2.289-1.722-1.778-3.311-4.465-5.998-4.74zM180.464 9.267c-1.589.303-1.845 2.157-2.176 3.472.019-.076.028-.152.047-.237-.473 2.62-.539 6.944-4.38 6.045-.416-.085-.832-.217-1.229-.33 2.119 2.535 4.985 2.232 6.782-.464 1.221-1.854.909-4.182 1.609-6.206 2.034.407 3.992 1.4 5.713 2.535-1.154-1.835-4.001-5.146-6.366-4.815zm.634 2.28c0 .01-.01.01-.01.019 0-.01 0-.02.01-.02zm-.095.047c0 .01-.009.01-.009.02 0-.01.009-.01.009-.02zM161.674 12.596c-1.599 1.428-1.39 3.746-2.185 5.581-.625 1.192-1.627 2.346-3.075 2.366-1.504.018-2.611-.596-.548.737 2.185 1.202 4.654-.36 5.761-2.308.946-1.447.596-3.32 1.438-4.787 1.542-.038 2.98.72 4.418 1.183-1.419-1.438-3.605-4.125-5.809-2.772zm1.287 1.618c-.019.01-.038.028-.067.037a.153.153 0 00.067-.037zm.009.028l-.028.028.028-.028zM148.042 15.227c-1.475.378-1.636 2.27-2.336 3.405-.994 2.053-2.867 5.156-5.563 4.144-.274-.113-.539-.274-.794-.407.227.379.454.748.775 1.06 1.807 1.618 4.607.435 6.036-1.145 1.334-1.362 1.986-3.16 2.554-4.938 1.703.35 3.16 1.305 4.588 2.232-1.145-1.835-2.828-4.436-5.26-4.351zM197.48 7.193c-2.024.794-2.157 3.651-2.696 5.468-.794 1.92-1.674 4.824-4.257 4.597-.615.019-1.618-.567-.463.312 2.715 1.93 5.562-.946 6.764-3.292.936-1.4.908-3.15 1.608-4.654 2.223-.029 3.519 1.977 5.023 3.31-.691-1.626-1.173-3.594-2.639-4.72-.946-.662-2.138-1.305-3.34-1.021zm.852 2.44c-.019.01-.029.029-.048.038.01-.01.029-.028.048-.038zm-.123.029c-.01.01-.019.01-.029.019 0-.01.019-.01.029-.02zm-7.72 7.606h0z" fill="#fff" fill-opacity=".1"/></svg>