<svg width="40" height="40" fill="none" xmlns="http://www.w3.org/2000/svg"><path d="M23.494 30.5v-7.172a.584.584 0 10-1.169 0V30.5a.584.584 0 001.169 0z" fill="#0054A3"/><path d="M39.227 7.794h-1.408V5.196a.717.717 0 00-.717-.716h-2.74V.974A.975.975 0 0033.388 0H6.608a.975.975 0 00-.974.974V4.48H3.107a.717.717 0 00-.716.716v2.598H.77a.746.746 0 00-.746.745v2.286c0 .41.335.745.746.745h.264v27.846c0 .322.262.584.585.584h36.76a.584.584 0 00.584-.584V27.584a.584.584 0 10-1.168 0v11.247h-1.698V14.711a.886.886 0 00-.884-.884H19.604a.584.584 0 100 1.169h4.98V38.83h-9.173V14.996h1.477a.584.584 0 100-1.169H4.784a.886.886 0 00-.885.885v24.12H2.202V11.57h35.592v16.202a.584.584 0 101.168 0V11.57h.265a.746.746 0 00.745-.745V8.539a.746.746 0 00-.745-.745zm-13.473 7.202h9.174v4.381h-9.174v-4.381zm0 5.55h9.174V33.28h-9.174V20.546zm0 13.904h9.174v4.381h-9.174v-4.38zM5.068 14.996h9.174v4.381H5.068v-4.381zm0 5.55h9.174V33.28H5.068V20.546zm0 13.904h9.174v4.381H5.068v-4.38zM34.362 5.648h2.288v2.146h-2.288V5.648zM6.803 1.168h26.39v6.626H6.803V1.169zM3.56 5.649h2.074v2.146H3.56V5.648zm35.244 4.754H1.192v-1.44h37.611v1.44z" fill="#0054A3"/></svg>