<svg width="40" height="40" fill="none" xmlns="http://www.w3.org/2000/svg"><path d="M34.335 1.333h-2V.667a.667.667 0 00-1.334 0v.666h-1.333V.667a.667.667 0 00-1.333 0v.666H27V.667a.667.667 0 00-1.333 0v.666h-1.333V.667a.667.667 0 00-1.334 0v.666h-9.333V.667a.667.667 0 00-1.333 0v.666H11V.667a.667.667 0 00-1.333 0v.666H8.335V.667A.667.667 0 007 .667v.666H5.668V.667a.667.667 0 00-1.333 0v.666h-2A.667.667 0 001.668 2v31.333c0 .369.298.667.667.667H21.7a.667.667 0 00.667-.713l-.005-.078a6.69 6.69 0 01-.028-.542 8.63 8.63 0 01.232-1.96 8.52 8.52 0 01.66-1.847c.029-.059.055-.118.085-.176.089-.17.185-.333.284-.497.031-.051.062-.104.095-.154.108-.17.221-.335.341-.496l.075-.101c.134-.174.272-.343.416-.507l.02-.022a8.787 8.787 0 013.487-2.374l.117-.043c.18-.063.363-.12.548-.171.083-.024.168-.045.252-.067a8.58 8.58 0 01.472-.105c.133-.024.272-.043.408-.062.121-.017.24-.036.362-.048a8.6 8.6 0 01.812-.041c.181 0 .359.014.534.026l.083.006h.017c.841.063 1.67.248 2.458.55a.667.667 0 00.908-.62V2a.667.667 0 00-.666-.667zM22.37 27.642c-.024.038-.048.074-.07.112a8.448 8.448 0 00-.266.517c-.048.096-.096.192-.14.29-.072.16-.14.324-.204.49l-.021.048V26h1.9a10.071 10.071 0 00-1.2 1.642zm3.297-3.42c-.23.146-.45.3-.667.463v-.018h-3.333v-4h4v3.556zm0-4.889h-4v-4h4v4zm0-5.333h-4v-4h4v4zm5.333 1.333v4h-4v-4h4zm-4-1.333v-4h4v4h-4zm4.002 8.667c-.312 0-.62.018-.926.046-.133.012-.258.033-.387.05a9.719 9.719 0 00-.487.074 9.607 9.607 0 00-.809.186c-.2.055-.4.114-.6.181-.025.01-.05.02-.075.028-.243.085-.483.173-.716.275v-2.84h4v2zm2.665.368a9.902 9.902 0 00-1.333-.277V9.333a.667.667 0 00-.667-.666H5.001a.667.667 0 00-.666.666v21.334c0 .368.298.666.666.666h16.1a10 10 0 00-.1 1.334h-18V7.333h30.667v15.702zm-17.333 1.632v-4h4v4h-4zm4 1.333v4h-4v-4h4zm-4-6.667v-4h4v4h-4zm0-5.333v-4h4v4h-4zM11 24.667v-4h4v4h-4zm4 1.333v4h-4v-4h4zm-4-6.667v-4h4v4h-4zm0-5.333v-4h4v4h-4zM5.668 24.667v-4h4v4h-4zm4 1.333v4h-4v-4h4zm-4-6.667v-4h4v4h-4zm0-5.333v-4h4v4h-4zm28-8H3.001V2.667h1.334v.666a.667.667 0 001.333 0v-.666h1.333v.666a.667.667 0 001.334 0v-.666h1.333v.666a.667.667 0 001.333 0v-.666h1.334v.666a.667.667 0 001.333 0v-.666h9.333v.666a.667.667 0 001.334 0v-.666h1.333v.666a.667.667 0 001.333 0v-.666h1.334v.666a.667.667 0 001.333 0v-.666h1.333v.666a.667.667 0 001.334 0v-.666h1.333V6z" fill="#0054A3"/><path d="M31.001 25.333a7.333 7.333 0 107.334 7.334A7.342 7.342 0 0031 25.333zm0 13.334a6 6 0 116-6 6.007 6.007 0 01-6 6z" fill="#0054A3"/><path d="M34.787 28.862a.667.667 0 00-.927 0l-2.862 2.862-1.528-1.529a.667.667 0 00-.943.943l2 2c.26.26.682.26.943 0l3.333-3.333a.667.667 0 00-.016-.943z" fill="#0054A3"/></svg>