<svg width="40" height="40" fill="none" xmlns="http://www.w3.org/2000/svg"><path d="M18.36 7.11a3.129 3.129 0 00-3.126-3.126A3.129 3.129 0 0012.11 7.11a3.129 3.129 0 003.125 3.125A3.129 3.129 0 0018.36 7.11zm-3.126 1.562c-.861 0-1.562-.701-1.562-1.563 0-.861.7-1.562 1.562-1.562.862 0 1.563.7 1.563 1.562 0 .862-.701 1.563-1.563 1.563zM8.75 7.11a3.129 3.129 0 00-3.125-3.126A3.129 3.129 0 002.5 7.11a3.129 3.129 0 003.125 3.125A3.129 3.129 0 008.75 7.11zM5.625 8.671c-.862 0-1.563-.701-1.563-1.563 0-.861.701-1.562 1.563-1.562s1.563.7 1.563 1.562c0 .862-.701 1.563-1.563 1.563zM27.89 7.11a3.129 3.129 0 00-3.124-3.126A3.129 3.129 0 0021.64 7.11a3.129 3.129 0 003.125 3.125A3.129 3.129 0 0027.89 7.11zm-3.124 1.562c-.862 0-1.563-.701-1.563-1.563 0-.861.701-1.562 1.563-1.562.861 0 1.562.7 1.562 1.562 0 .862-.7 1.563-1.562 1.563zM37.5 7.11a3.129 3.129 0 00-3.125-3.126A3.129 3.129 0 0031.25 7.11a3.129 3.129 0 003.125 3.125A3.129 3.129 0 0037.5 7.11zm-3.125 1.562c-.862 0-1.563-.701-1.563-1.563 0-.861.701-1.562 1.563-1.562s1.563.7 1.563 1.562c0 .862-.701 1.563-1.563 1.563z" fill="#0054A3"/><path d="M34.375 10.234a5.74 5.74 0 00-4.834 2.7 5.582 5.582 0 00-4.775-2.7A5.585 5.585 0 0020 12.917a5.584 5.584 0 00-4.766-2.683 5.584 5.584 0 00-4.775 2.7 5.74 5.74 0 00-4.834-2.7C2.673 10.234 0 12.618 0 15.704v7.812c0 .431.35.78.781.78H2.5v10.938c0 .432.35.782.781.782H7.97c.431 0 .781-.35.781-.782V24.297h3.36v10.937c0 .432.35.782.78.782h4.688c.432 0 .781-.35.781-.782V24.297h3.282v10.937c0 .432.35.782.78.782h4.688c.432 0 .782-.35.782-.782V24.297h3.359v10.937c0 .432.35.782.781.782h4.688c.431 0 .781-.35.781-.782V26.25a.781.781 0 00-1.563 0v8.203h-3.124V23.516a.781.781 0 00-.782-.782h-1.718v-7.03c0-2.118 1.86-3.907 4.062-3.907s4.063 1.789 4.063 3.906v7.031h-1.72a.781.781 0 00-.78.782v2.734a.781.781 0 001.562 0v-1.953h1.719c.431 0 .781-.35.781-.781v-7.813c0-3.084-2.672-5.469-5.625-5.469zm-26.406 12.5a.781.781 0 00-.782.782v10.937H4.063V23.516a.781.781 0 00-.78-.782h-1.72v-7.03c0-2.118 1.86-3.907 4.063-3.907 2.202 0 4.063 1.789 4.063 3.906v7.031h-1.72zm9.61 0a.781.781 0 00-.782.782v10.937h-3.125V23.516a.781.781 0 00-.781-.782H11.25v-7.03c0-2.155 1.787-3.907 3.984-3.907s3.985 1.752 3.985 3.906v7.031h-1.64zm9.53 0a.781.781 0 00-.78.782v10.937h-3.126V23.516a.781.781 0 00-.781-.782h-1.64v-7.03c0-2.155 1.787-3.907 3.984-3.907s3.984 1.752 3.984 3.906v7.031h-1.64z" fill="#0054A3"/></svg>