<svg width="135" height="93" viewBox="0 0 135 93" fill="none" xmlns="http://www.w3.org/2000/svg">
<path d="M36.1254 81.3652C36.2945 81.598 36.4801 81.8253 36.6165 82.0743C35.8033 82.372 34.9192 82.4478 34.0896 82.713C32.8016 83.1947 31.5518 83.8659 30.5366 84.7969C32.3049 84.5804 34.0023 84.0229 35.6069 83.2651C36.8294 82.7022 38.1393 82.1284 36.1254 81.3652ZM36.7257 82.0148C36.7202 82.0202 36.7093 82.031 36.7039 82.0364C36.7093 82.031 36.7148 82.0202 36.7257 82.0148Z" fill="white" fill-opacity="0.1"/>
<path d="M33.4133 81.592C31.3721 81.9222 29.4237 82.6583 27.5135 83.4161C26.5366 83.7409 25.6033 84.2605 24.5609 84.3416C24.0915 84.2388 23.6986 83.9086 23.2292 83.7842C21.903 83.2321 20.4567 83.3187 19.0649 83.1022C19.2287 83.2104 19.4197 83.3024 19.5998 83.389C20.3421 83.7679 21.1334 84.044 21.8429 84.4716C23.0218 85.2347 23.6822 85.9979 25.2049 85.6028C28.1521 85.0399 30.8864 83.6759 33.5007 82.2524C33.9809 81.9817 34.4667 81.7057 34.9088 81.3701C34.4121 81.4459 33.91 81.5217 33.4133 81.592Z" fill="white" fill-opacity="0.1"/>
<path d="M18.2695 83.9963C17.1452 84.3373 16.0591 84.7811 15.0003 85.2899C14.6401 85.3819 14.3508 85.7121 14.4818 86.091C14.7601 86.7242 15.6388 86.7513 16.1628 87.1302C16.5175 87.298 16.463 87.7093 16.463 88.0341C17.0906 87.2655 16.5557 86.5889 15.9226 86.0639C17.3198 85.5335 18.6406 84.7432 19.6066 83.5903C19.1591 83.704 18.7061 83.8447 18.2695 83.9963Z" fill="white" fill-opacity="0.1"/>
<path d="M15.5404 87.6167C14.7054 88.1309 13.7394 88.3636 12.8334 88.7263C11.6327 89.2296 10.4866 89.9658 9.64062 90.9508C11.8346 90.415 14.2033 89.5219 15.5404 87.6167Z" fill="white" fill-opacity="0.1"/>
<path d="M19.6936 88.2822C18.4601 88.6178 17.3031 89.1482 16.0915 89.5542C14.7052 90.0088 13.2534 90.4743 12.1455 91.454C12.1237 91.4486 12.0964 91.4378 12.0746 91.4324C12.0855 91.4378 12.0964 91.4378 12.1073 91.4432C11.507 91.2538 10.8848 91.1076 10.2681 90.9669C10.863 91.4594 11.4469 92.0386 12.151 92.3525C12.4675 92.4121 12.7841 92.2551 13.0624 92.1252C14.2249 91.6705 15.4693 91.4324 16.6372 90.9885C18.471 90.2145 20.0101 88.8992 21.7348 87.9358C21.7293 87.9358 21.7293 87.9412 21.7239 87.9412C21.8439 87.8871 21.9749 87.8384 22.095 87.7896C22.0186 87.7842 21.9422 87.7788 21.8603 87.7788C21.1126 87.7788 20.3976 88.0657 19.6936 88.2822ZM12.1728 91.4486C12.1674 91.4486 12.1619 91.454 12.1619 91.454C12.1619 91.454 12.1674 91.4486 12.1728 91.4486Z" fill="white" fill-opacity="0.1"/>
<path d="M32.0715 86.2524C32.2407 86.3878 32.4263 86.5177 32.5846 86.6638C30.7671 87.1455 28.8569 87.3512 27.0995 88.0386C26.7775 88.1685 26.4719 88.385 26.1117 88.4012C25.2657 88.2659 24.4798 87.8979 23.6284 87.7734C23.0499 87.676 22.4659 87.6327 21.8765 87.6435C22.253 87.8437 22.6296 88.0603 23.0117 88.2605C24.2069 88.791 25.2657 89.9655 26.652 89.8789C27.487 89.7382 28.2511 89.3106 29.0425 89.0291C30.2868 88.5366 31.493 87.9736 32.6118 87.2375C33.6652 86.6909 32.7865 86.3228 32.0715 86.2524ZM32.1807 86.7504C32.1643 86.7558 32.1479 86.7558 32.137 86.7612C32.1534 86.7558 32.1698 86.7558 32.1807 86.7504Z" fill="white" fill-opacity="0.1"/>
<path d="M30.4609 84.9424C30.8321 85.6568 31.5416 86.1332 32.2893 86.393C31.9018 85.6839 31.1704 85.278 30.4609 84.9424Z" fill="white" fill-opacity="0.1"/>
<path d="M41.147 78.9512C34.3631 79.3464 27.6118 80.4668 21.0352 82.1447C16.4671 83.1352 11.9372 84.3151 7.56555 85.966C5.43703 86.8699 0.830694 88.1364 0.394074 90.6533C0.159392 93.7764 6.00463 92.9807 7.96396 92.6993C10.0816 92.3095 8.74987 92.4124 7.57646 92.2175C5.7372 91.9469 3.50499 92.0497 1.94953 90.9564C5.82998 87.1135 12.4066 85.56 17.5259 83.8821C20.5768 82.8916 23.7314 82.3179 26.8914 81.7766C31.1757 80.9593 41.4909 79.368 45.2294 81.349C43.8759 83.3571 40.5958 84.8131 38.5055 86.0742C41.2016 85.4193 44.0342 84.6832 46.2664 82.9782C47.3907 82.1122 47.5653 80.4343 46.2336 79.6765C44.6836 78.8917 42.8498 78.9296 41.147 78.9512Z" fill="white" fill-opacity="0.1"/>
<path d="M40.3556 85.3438C38.4727 85.7551 36.5843 86.2044 34.756 86.8268C33.6153 87.2165 32.4965 87.6983 31.4868 88.3586C31.8634 88.364 32.2564 88.3478 32.6384 88.3207C35.4055 88.0068 38.0416 86.8268 40.3556 85.3438Z" fill="white" fill-opacity="0.1"/>
<path d="M25.4011 89.7496C25.0519 89.7767 24.7026 89.8091 24.3587 89.8633C24.3696 89.8633 24.386 89.8579 24.3969 89.8579C21.5807 90.2043 18.7372 90.5182 16.0084 91.3247C14.5293 91.8876 13.6615 91.9363 15.8938 92.0392C18.4971 92.0825 21.0622 91.4384 23.5401 90.7077C24.5225 90.4154 25.4885 90.0744 26.4327 89.6738C26.0943 89.6847 25.7395 89.7225 25.4011 89.7496ZM24.3533 89.8633C24.3423 89.8633 24.3314 89.8687 24.3205 89.8687C24.3314 89.8633 24.3423 89.8633 24.3533 89.8633Z" fill="white" fill-opacity="0.1"/>
<path d="M29.5117 66.7798C30.6742 69.1018 33.0429 70.4928 35.024 72.0625C38.2495 74.7472 41.9608 76.7769 45.4428 79.0989C45.7212 79.245 45.9559 80.176 45.8576 79.4128C45.552 78.0976 43.549 76.5766 42.5448 75.6511C40.2252 73.6538 37.6547 71.9218 35.0131 70.3792C33.1193 69.2804 31.0017 68.4252 29.5117 66.7798ZM29.8283 67.1045L29.8337 67.11L29.8283 67.1045ZM30.0029 67.2669C30.0084 67.2723 30.0084 67.2723 30.0138 67.2778C30.0084 67.2723 30.0029 67.2723 30.0029 67.2669Z" fill="white" fill-opacity="0.1"/>
<path d="M9.77129 72.2339C7.79013 75.5356 5.7926 78.4963 4.1007 81.9387C2.94366 84.0442 2.28328 86.3717 1.44824 88.6179C2.06497 87.99 2.63803 87.2972 3.16197 86.5828C3.72958 85.8521 4.12799 85.0185 4.60281 84.2283C5.13221 83.2973 5.77077 82.4259 6.24013 81.4624C7.64823 78.4801 9.0072 75.4436 9.77129 72.2339Z" fill="white" fill-opacity="0.1"/>
<path d="M27.5571 62.0425C25.1557 62.3348 22.8253 63.1629 20.5821 64.0398C18.0497 65.0411 15.5774 66.1778 13.3179 67.6987C12.3246 68.3807 10.0269 69.8584 9.76491 71.0004C9.68851 71.401 9.87952 71.8069 10.1797 72.0667C10.0105 71.7149 9.96685 71.2765 10.2506 70.9679C11.9589 69.7339 14.011 68.9869 15.8503 67.9477C18.5846 66.535 21.2916 65.0736 24.0696 63.7421C25.4341 63.1467 26.7603 62.3402 28.2502 62.1021C28.2721 62.0966 28.2994 62.1075 28.3157 62.1021C28.0811 62.0154 27.8082 62.0371 27.5571 62.0425ZM10.0596 71.3739C10.0596 71.3793 10.0596 71.3847 10.0542 71.3901C10.0542 71.3847 10.0542 71.3793 10.0596 71.3739ZM10.0978 71.8502C10.0978 71.8502 10.0978 71.8556 10.1033 71.8556C10.1033 71.8556 10.1033 71.8556 10.0978 71.8502Z" fill="white" fill-opacity="0.1"/>
<path d="M28.9277 62.8594C28.0435 63.3573 27.1648 64.3208 27.6014 65.3925C28.0217 66.3559 29.1351 66.724 30.0465 67.092C29.8664 66.8755 29.6754 66.6536 29.4844 66.4425C28.1035 65.1327 28.1199 64.5156 28.9277 62.8594Z" fill="white" fill-opacity="0.1"/>
<path d="M26.9408 51.8711C26.9953 51.9306 27.0717 51.9848 27.0936 52.0659C25.8601 52.932 24.261 53.2188 22.8529 53.7601C19.5892 54.9347 16.2327 55.844 12.9908 57.0889C10.5675 58.1714 5.78111 60.4555 6.43058 63.6544C6.55065 64.2498 7.12372 64.5583 7.69132 64.5637C7.42935 64.4176 7.13463 64.266 7.00365 63.9846C6.6216 61.7383 10.0272 60.4177 11.6263 59.4975C14.2406 58.0577 17.0786 57.1159 19.9003 56.1633C19.8457 56.185 19.7911 56.2012 19.7365 56.2229C20.326 56.1525 28.5944 52.3799 26.9408 51.8711Z" fill="white" fill-opacity="0.1"/>
<path d="M8.30275 64.2021C6.11965 64.6513 8.90856 64.5052 9.54166 65.2088C10.2675 65.8962 10.5186 66.8975 11.048 67.7148C11.2117 67.9367 11.5228 68.0504 11.7848 68.1316C11.6811 68.0125 11.5665 67.8826 11.4682 67.7473C11.2008 67.2115 11.31 66.5619 11.1135 65.9936C10.8297 64.7054 9.61807 63.834 8.30275 64.2021Z" fill="white" fill-opacity="0.1"/>
<path d="M20.539 57.6733C19.7203 57.6788 18.9289 57.8953 18.1594 58.1442C18.1867 58.1334 18.2085 58.128 18.2358 58.1172C15.0212 59.2971 10.6659 60.4608 9.76537 64.2172C9.72171 64.4824 9.73262 64.7639 9.75445 65.0345C9.92364 64.6664 10.1256 64.293 10.4039 63.9899C11.7847 62.4906 13.7059 61.6949 15.4032 60.6124C17.1224 59.6489 18.6506 58.2904 20.539 57.6733ZM17.2316 58.4744C17.2097 58.4798 17.1879 58.4906 17.1661 58.4961C17.1879 58.4906 17.2097 58.4798 17.2316 58.4744ZM9.84724 64.8342C9.84724 64.8397 9.84178 64.8396 9.84178 64.8451C9.84723 64.8396 9.84724 64.8397 9.84724 64.8342Z" fill="white" fill-opacity="0.1"/>
<path d="M27.285 53.0576C23.4209 54.6922 23.2954 58.3024 25.7295 61.301C26.6683 62.0371 26.3736 61.826 25.997 61.0087C25.5549 59.4445 25.2602 57.7828 25.5767 56.1699C25.8605 55.0224 26.6355 54.0319 27.285 53.0576Z" fill="white" fill-opacity="0.1"/>
<path d="M5.62891 55.2871C6.15285 55.7364 6.55127 56.3047 6.98243 56.8351C7.48455 57.3385 7.95937 57.8527 8.22135 58.5184C8.60339 56.9758 7.05338 55.5686 5.62891 55.2871Z" fill="white" fill-opacity="0.1"/>
<path d="M21.7731 43.7538C18.2365 44.5278 14.7272 45.5399 11.4798 47.1637C9.09478 48.3815 4.64126 50.4113 4.07911 53.2258C4.02454 53.6805 4.15007 54.1676 4.51028 54.4707C4.18827 53.8591 4.52665 53.1609 4.97419 52.7008C6.31133 51.4126 8.06872 50.6819 9.70059 49.8321C13.8212 47.548 18.1874 45.7727 22.559 44.019C23.1648 43.77 23.7979 43.5697 24.4092 43.3262C23.5305 43.3803 22.6409 43.5643 21.7731 43.7538Z" fill="white" fill-opacity="0.1"/>
<path d="M24.222 44.4614C22.5301 45.4682 21.4549 47.211 22.0171 49.192C22.4701 50.6372 23.1632 52.0228 24.1565 53.1811C24.0801 52.8455 23.9818 52.5046 23.9 52.1636C23.5834 50.3666 22.9231 48.5425 23.256 46.7077C23.4688 45.912 23.9327 45.2192 24.222 44.4614Z" fill="white" fill-opacity="0.1"/>
<path d="M14.3607 49.4311C11.4517 50.2051 8.39541 51.4554 6.65985 54.021C6.4852 54.3024 6.33784 54.6164 6.21777 54.9249C6.94365 54.3349 7.78414 53.9398 8.59735 53.4797C10.6276 52.473 12.4451 51.1307 14.3498 49.9291C15.556 49.1984 16.3419 48.9548 14.3607 49.4311ZM7.19471 53.3119C7.20562 53.3011 7.21654 53.2903 7.22745 53.2795C7.21654 53.2903 7.20562 53.3011 7.19471 53.3119ZM7.22745 53.2795C7.24383 53.2632 7.25474 53.247 7.27112 53.2307C7.25474 53.247 7.24383 53.2632 7.22745 53.2795Z" fill="white" fill-opacity="0.1"/>
<path d="M5.43648 44.5332C5.36007 45.4642 5.48014 46.4168 5.52381 47.3532C5.68208 48.1867 6.09687 48.9553 6.56079 49.659C6.56624 49.5453 6.56624 49.4262 6.56624 49.3126C6.56624 49.3234 6.56624 49.3288 6.56624 49.3396C6.50621 48.111 6.39705 46.8336 6.01501 45.659C5.84036 45.2747 5.61113 44.9121 5.43648 44.5332Z" fill="white" fill-opacity="0.1"/>
<path d="M22.0728 33.4746C21.205 33.7398 20.299 33.8535 19.4258 34.1079C19.4476 34.1025 19.464 34.0971 19.4858 34.0916C14.5848 35.3636 6.21807 37.4312 2.86156 41.2904C1.80276 42.4975 1.24606 44.6733 2.63779 45.837C3.2436 46.3296 4.10047 46.3079 4.80997 46.0969C4.24782 46.0265 3.65293 45.902 3.2436 45.4852C1.08779 42.492 8.96877 39.0009 11.0918 38.0158C14.7103 36.4407 18.498 35.1417 22.0728 33.4746Z" fill="white" fill-opacity="0.1"/>
<path d="M21.5923 35.2163C19.7913 35.9145 19.1636 38.1554 19.9004 39.8333C20.3316 41.0511 20.7464 42.3772 21.8379 43.1783C21.7015 42.8264 21.5432 42.4692 21.4395 42.0957C21.2321 41.2189 21.2212 40.3096 21.0193 39.4273C20.5663 38.0146 20.6973 36.4396 21.5923 35.2163ZM21.3249 35.6385C21.3249 35.6439 21.3194 35.6439 21.3194 35.6493C21.3249 35.6439 21.3249 35.6439 21.3249 35.6385Z" fill="white" fill-opacity="0.1"/>
<path d="M12.4512 39.4705C9.96788 39.9414 7.42456 40.9211 5.94006 43.0645C5.13777 44.4177 5.14869 44.2282 6.37668 43.4705C8.58706 42.2635 10.732 40.9482 12.9205 39.6979C14.3941 38.9996 13.1989 39.3839 12.4512 39.4705Z" fill="white" fill-opacity="0.1"/>
<path d="M18.5088 24.9375C17.5591 25.6141 16.3966 25.8793 15.2996 26.2149C14.0171 26.5992 12.729 26.9564 11.4246 27.2649C9.22518 27.8224 7.1567 28.7967 5.15916 29.8522C3.65828 30.6532 -1.06812 33.5706 0.219909 35.5733C0.33998 35.687 0.760227 35.9089 0.460051 35.6491C-0.533257 34.3013 3.94209 32.2878 4.89174 31.7033C4.88082 31.7087 4.86445 31.7141 4.85353 31.7249C5.91233 31.1728 6.99842 30.6749 8.05723 30.1282C8.04631 30.1336 8.02994 30.139 8.01902 30.1498C10.4532 28.9104 13.1111 28.1851 15.5343 26.9185C16.5877 26.3773 17.7556 25.8739 18.5088 24.9375ZM8.36831 29.9712C8.35194 29.9821 8.33011 29.9929 8.31374 29.9983C8.33011 29.9875 8.34648 29.9821 8.36831 29.9712ZM8.29736 30.0037C8.26462 30.0199 8.23187 30.0362 8.19367 30.0578C8.19913 30.0524 8.21004 30.0524 8.2155 30.047C8.19367 30.0578 8.17729 30.0687 8.15546 30.0795C8.19913 30.0578 8.24279 30.0362 8.28099 30.0145C8.27553 30.0145 8.27008 30.0199 8.26462 30.0199C8.27553 30.0145 8.28645 30.0091 8.29736 30.0037ZM8.19367 30.0578C8.18275 30.0632 8.17183 30.0687 8.16092 30.0741C8.17183 30.0687 8.18275 30.0632 8.19367 30.0578ZM8.15546 30.0795C8.15001 30.0795 8.15001 30.0795 8.15546 30.0795C8.15001 30.0795 8.15001 30.0795 8.15546 30.0795ZM8.13363 30.0849C8.11726 30.0903 8.10089 30.1011 8.08451 30.1065C8.10634 30.1011 8.12272 30.0957 8.13363 30.0849ZM8.01902 30.1444C7.9699 30.1661 7.92624 30.1932 7.87712 30.2148C7.92624 30.1932 7.97536 30.1715 8.01902 30.1444ZM8.24825 30.0308C8.23733 30.0362 8.22641 30.0416 8.2155 30.047C8.23187 30.0362 8.24824 30.0308 8.27007 30.0199C8.26462 30.0199 8.25916 30.0254 8.24825 30.0308Z" fill="white" fill-opacity="0.1"/>
<path d="M0.995117 35.7529C3.24916 36.8517 2.88349 37.079 3.72944 39.1629C3.84951 39.3469 4.03507 39.493 4.22064 39.6013C4.13877 39.4389 4.06782 39.2765 4.02416 39.1033C3.94229 38.443 4.1224 37.761 3.89317 37.1115C3.54388 35.8937 2.12487 35.5689 0.995117 35.7529Z" fill="white" fill-opacity="0.1"/>
<path d="M17.8547 26.937C17.0251 28.485 17.3089 30.4173 18.1167 31.922C18.3514 32.3226 18.5697 32.7935 19.0227 32.9883C19.0991 33.0262 19.4647 33.194 19.3611 33.0912C18.6952 32.4525 18.7498 31.462 18.5861 30.6176C18.4169 29.3727 17.9912 28.1765 17.8547 26.937ZM19.3556 33.0857C19.3556 33.0857 19.3611 33.0857 19.3556 33.0857C19.3611 33.0857 19.3556 33.0857 19.3556 33.0857Z" fill="white" fill-opacity="0.1"/>
<path d="M10.0381 31.0113C7.1237 31.2224 4.54764 32.7108 3.42334 35.455C5.6119 34.0478 7.84958 32.7 10.0982 31.3902C10.0818 31.3956 10.0654 31.4064 10.0491 31.4118C11.0424 30.9084 11.4299 30.9301 10.0381 31.0113Z" fill="white" fill-opacity="0.1"/>
<path d="M3.03075 26.0693C3.03075 26.0964 3.03075 26.118 3.02529 26.1451V26.1505C2.91614 27.4658 2.676 28.7973 2.80153 30.1126C3.6311 28.9055 3.75663 27.3413 3.03075 26.0693Z" fill="white" fill-opacity="0.1"/>
<path d="M11.6325 17.2744C10.7102 17.8373 9.60223 18.0105 8.61438 18.4544C7.38093 18.9523 6.15294 19.4773 4.97952 20.1052C3.22213 21.0957 -0.827516 23.5206 0.858926 25.8913C1.14273 26.1511 1.56297 26.1511 1.92319 26.1782C1.72125 26.0483 1.48111 25.94 1.30646 25.7614C0.465969 24.143 3.95892 22.7195 4.98498 21.8914C6.46948 20.9333 7.91033 19.9158 9.373 18.9198C10.1098 18.3623 11.054 17.9997 11.6325 17.2744ZM11.316 17.4639C11.3105 17.4639 11.3105 17.4693 11.305 17.4693C11.3105 17.4693 11.316 17.4693 11.316 17.4639Z" fill="white" fill-opacity="0.1"/>
<path d="M11.2506 18.7144C10.1481 20.1649 11.5453 21.9836 12.4895 23.1419C13.4119 24.2514 14.8909 24.5113 16.0643 25.242C17.1722 25.9564 16.6101 25.4909 16.1571 24.8306C15.7751 24.3326 15.2566 23.97 14.7599 23.5965C14.0832 23.0986 13.5156 22.4653 12.9862 21.8158C12.2876 20.874 11.0869 20.0026 11.2506 18.7144Z" fill="white" fill-opacity="0.1"/>
<path d="M5.09794 22.5789C3.54248 23.0065 2.40727 24.3434 1.85059 25.8048C2.31449 25.5017 2.78932 25.177 3.23139 24.8306C4.13192 24.2027 4.86871 23.3529 5.84565 22.8387C6.11853 22.7034 6.39688 22.5735 6.66976 22.4436C6.14036 22.4111 5.61096 22.449 5.09794 22.5789ZM6.12945 22.698C6.12399 22.7034 6.11853 22.7034 6.11307 22.7088C6.11853 22.7034 6.12399 22.7034 6.12945 22.698Z" fill="white" fill-opacity="0.1"/>
<path d="M6.62693 13.6858C5.3389 13.9132 4.41109 15.2068 4.21461 16.4354C4.07816 17.4909 4.08362 18.5788 4.23098 19.6289C4.55845 18.909 4.85862 18.1783 5.10422 17.4314C5.3389 16.5924 5.67728 15.7751 6.37587 15.2014C6.90527 14.5735 7.50017 15.2988 7.95316 15.6452C8.49893 16.1107 9.10474 16.4896 9.73238 16.8306C9.48678 16.4787 9.23027 16.1107 8.98467 15.7534C8.39524 14.9037 7.86584 13.583 6.62693 13.6858Z" fill="white" fill-opacity="0.1"/>
<path d="M55.4306 0.0136355C52.2596 0.722689 52.5871 12.4031 53.2256 15.0282C53.3075 15.4396 53.4112 15.8564 53.5204 16.2569C53.635 15.4612 53.7496 14.6656 53.8042 13.8645C54.1698 10.7956 53.6459 3.41276 55.6434 1.28019C55.9381 1.27477 56.0309 1.74026 56.2438 1.91346C56.8932 2.76866 57.3953 3.72128 57.832 4.70096C61.1011 13.0256 62.3783 22.0322 62.9622 30.9089C62.9622 30.9034 62.9622 30.898 62.9622 30.8926C63.1587 35.239 63.4534 42.3944 61.0848 46.1183C58.9453 43.8342 57.9575 39.7423 57.1225 36.7383C56.2765 32.8087 55.4087 28.8791 54.3172 25.0037C54.1262 30.7573 55.3978 36.4406 57.0461 41.9344C57.6027 43.5906 58.1267 45.3227 59.1691 46.7516C60.7136 48.3808 62.3237 48.0885 63.1205 45.9668C63.7263 44.2889 63.6499 42.454 63.7318 40.7003C63.7973 38.519 63.7372 36.3377 63.6717 34.1618C63.2897 25.2743 62.3237 16.3435 60.157 7.70497C59.5894 5.64817 59.0163 3.5589 58.0284 1.65366C57.5427 0.701037 56.5549 -0.116267 55.4306 0.0136355ZM55.6434 1.25312C55.6489 1.25312 55.6489 1.25312 55.6543 1.25312C55.6489 1.25854 55.6489 1.25312 55.6434 1.25312ZM58.7598 7.11499C58.7652 7.13664 58.7762 7.15829 58.7816 7.17994C58.7762 7.15829 58.7707 7.13664 58.7598 7.11499ZM58.798 7.21783C58.8034 7.23407 58.8089 7.25031 58.8144 7.26655C58.8089 7.25031 58.8034 7.23407 58.798 7.21783ZM62.9622 30.9143C62.9622 30.9305 62.9622 30.9522 62.9677 30.9684C62.9622 30.9522 62.9622 30.9359 62.9622 30.9143Z" fill="white" fill-opacity="0.1"/>
<path d="M55.2228 18.3521C54.4151 20.804 54.1149 23.5428 55.0809 25.9893C55.5448 26.6442 56.5381 26.5035 57.2313 26.747C55.2174 25.199 55.6431 25.946 55.6376 23.3263C55.7577 21.6538 55.7031 19.965 55.2228 18.3521Z" fill="white" fill-opacity="0.1"/>
<path d="M57.5384 27.1582C57.6912 28.3003 57.4566 29.4315 57.3965 30.5682C57.3474 31.7156 57.3419 32.8739 57.462 34.0214C57.462 34.0106 57.462 34.0052 57.4566 33.9943C57.462 34.0485 57.4675 34.108 57.4729 34.1621C57.4675 34.1242 57.4675 34.0918 57.462 34.0539C57.6803 35.8022 57.8986 37.5558 58.3516 39.2608C58.4226 39.6072 58.559 40.0998 59.0175 39.9969C59.656 39.7317 59.9344 38.9956 60.2564 38.4327C59.8689 38.725 59.4868 39.0551 59.0393 39.2662C58.7937 36.338 58.8537 33.3827 58.5044 30.4599C58.3953 29.3124 58.2425 28.1108 57.5384 27.1582Z" fill="white" fill-opacity="0.1"/>
<path d="M59.8621 20.2241C59.8567 22.2647 59.5347 24.2998 59.6384 26.3404C58.4267 26.4973 58.454 27.7747 58.5032 28.7165C58.5195 30.9519 58.7924 33.1765 59.2181 35.3686C59.3819 36.2509 59.6329 37.1223 59.8676 37.9829C60.1459 36.2455 60.2496 34.4701 60.0532 32.7164C59.9495 31.1847 59.6602 29.6312 59.8021 28.0941C60.468 28.1969 61.1993 27.8938 61.3739 27.201C61.565 26.27 61.0356 25.3715 60.8773 24.4676C60.4734 23.0712 60.2824 21.6043 59.8621 20.2241Z" fill="white" fill-opacity="0.1"/>
<path d="M55.5889 6.54751C53.8534 7.26738 55.1632 10.1415 55.5234 11.4189C55.5507 10.4229 55.4743 9.39996 55.7308 8.42569C56.2111 11.1266 56.806 13.8167 56.9588 16.5663C57.0298 17.3673 57.0188 18.255 57.5373 18.9208C57.903 19.3213 58.4761 19.527 59 19.3483C58.8636 19.3105 58.7162 19.2834 58.5798 19.2293C57.4937 18.6718 58.0667 17.3078 58.0722 16.3552C58.165 15.2023 58.0776 14.0386 57.9139 12.8965C57.6792 11.381 57.199 9.91957 56.7951 8.44733C56.544 7.76534 56.675 6.34724 55.5889 6.54751Z" fill="white" fill-opacity="0.1"/>
<path d="M55.3373 11.0396C55.1245 12.8203 55.1627 14.6498 55.441 16.4197C55.5283 16.9934 55.6866 17.5563 55.7849 18.1301C55.8121 18.4981 55.2882 18.5739 55.0044 18.5685C56.9965 19.651 56.5653 16.5063 56.4452 15.4183C56.2269 13.9245 55.632 12.5118 55.3373 11.0396ZM55.7903 18.2275V18.2329C55.7903 18.2329 55.7903 18.2329 55.7903 18.2275ZM55.7739 18.287C55.7685 18.2979 55.763 18.3087 55.7576 18.3195C55.7685 18.3087 55.7739 18.2979 55.7739 18.287Z" fill="white" fill-opacity="0.1"/>
<path d="M57.9575 1.22656C60.7191 4.75017 64.3049 7.43482 67.8906 10.0653C68.933 10.8664 70.0028 11.6404 71.1107 12.3603C71.7383 12.7987 72.4151 13.1992 73.1901 13.3021C74.3471 13.3833 75.466 12.934 76.6121 12.815C76.9723 12.75 77.3325 12.6742 77.6872 12.5768C77.1633 12.5064 76.623 12.4198 76.099 12.3441C75.1385 12.1492 74.0851 12.474 73.1846 12.0301C71.6346 10.8556 70.2156 9.49161 68.5455 8.4578C66.5589 7.12089 64.5341 5.84893 62.5038 4.58779C60.9102 3.57022 59.4693 2.33615 57.9575 1.22656Z" fill="white" fill-opacity="0.1"/>
<path d="M80.3076 30.168C78.7031 30.2762 77.0384 30.4007 75.5594 31.061C75.09 31.2721 74.637 31.4995 74.2168 31.8026C75.0573 31.6943 75.9142 31.5807 76.771 31.5319C78.1791 31.5319 79.5763 31.3425 80.908 30.8662C81.3664 30.72 81.8467 30.6118 82.3052 30.4765C81.6612 30.2708 80.9844 30.1463 80.3076 30.168Z" fill="white" fill-opacity="0.1"/>
<path d="M75.6301 30.6753C74.5331 31.3086 73.7199 32.2991 72.7975 33.1489C72.8248 33.1218 72.8521 33.0947 72.8794 33.0677C70.3634 35.5845 67.9729 38.2367 65.768 41.0242C64.7201 42.3016 63.9997 43.7955 62.9736 45.0837C64.6219 44.2447 65.8007 42.74 67.1215 41.4843C70.4998 38.3341 72.9449 34.3775 75.6301 30.6753Z" fill="white" fill-opacity="0.1"/>
<path d="M75.7442 18.8232C75.0783 22.3306 75.5804 25.8867 75.7223 29.4103C77.8454 25.7839 76.2245 22.5958 75.7442 18.8232Z" fill="white" fill-opacity="0.1"/>
<path d="M78.4131 11.3379C79.0899 12.139 79.5428 13.0916 79.9958 14.028C81.1038 16.2796 81.917 18.6557 82.3809 21.1185C82.9321 23.7869 83.5871 26.4391 83.92 29.1454C83.9855 29.7895 84.0346 30.439 84.0837 31.0831C84.2365 30.6339 84.373 30.1684 84.4876 29.6975C85.3063 25.8762 83.9254 19.9169 82.1626 16.4474C82.1844 16.4853 82.2008 16.5286 82.2226 16.5665C81.6114 15.3324 80.8309 14.1903 80.034 13.0645C79.5592 12.4421 79.068 11.7871 78.4131 11.3379Z" fill="white" fill-opacity="0.1"/>
<path d="M87.4518 27.8236C86.0983 27.9589 85.0449 28.9765 85.0449 30.3513C85.2632 30.0861 85.4706 29.7938 85.7326 29.5611C87.0861 28.4569 89.0946 29.0847 90.4972 29.7884C91.0484 30.124 92.2819 31.6666 92.8877 30.9305C92.8331 30.9413 92.7676 30.9629 92.7076 30.9738C92.7131 30.9738 92.7185 30.9738 92.7185 30.9738C92.009 30.806 91.6706 29.5015 91.1085 29.009C90.1643 28.1159 88.7617 27.6071 87.4518 27.8236Z" fill="white" fill-opacity="0.1"/>
<path d="M97.3895 26.2816C95.5612 26.4872 95.1628 28.5278 94.426 29.8701C94.2186 30.2869 93.9457 30.6604 93.5527 30.9202C94.1422 30.8931 94.6607 30.5684 95.0755 30.1624C95.8177 29.5183 96.2216 28.5711 96.9802 27.9486C98.3883 27.2829 100.866 28.9229 102.154 29.5778C102.432 29.7402 102.705 29.9026 103.011 30C102.591 29.5454 102.252 29.0203 101.821 28.5711C100.631 27.4345 99.1797 26.0759 97.3895 26.2816Z" fill="white" fill-opacity="0.1"/>
<path d="M107.165 25.8213C105.86 25.935 104.676 26.8173 104.147 27.9972C103.852 28.5872 103.601 29.2042 103.377 29.8267C103.683 29.5723 103.988 29.2908 104.277 29.0094C106.024 26.8984 107.656 27.0825 109.932 28.2624C110.467 28.5385 111.012 28.8037 111.52 29.1338C111.853 29.4099 112.317 29.5993 112.715 29.3287C113.266 28.9661 113.457 28.2787 113.73 27.7212C113.343 28.0351 112.977 28.414 112.513 28.6088C112.295 28.6575 112.175 28.3436 112.011 28.2299C110.707 26.9688 109.091 25.6373 107.165 25.8213ZM112.732 28.4952C112.726 28.5006 112.715 28.506 112.71 28.5114C112.721 28.506 112.726 28.5006 112.732 28.4952ZM112.328 28.6088C112.339 28.6088 112.349 28.6142 112.36 28.6142C112.349 28.6142 112.339 28.6088 112.328 28.6088Z" fill="white" fill-opacity="0.1"/>
<path d="M117.921 23.6512C115.978 23.727 114.608 25.3995 113.948 27.072C113.866 27.3156 113.779 27.5645 113.697 27.8027C114.199 27.3697 114.668 26.9096 115.181 26.4928C115.176 26.4982 115.17 26.5037 115.165 26.5037C117.605 24.2466 119.433 24.6634 121.709 26.823C121.916 26.9691 122.162 26.8934 122.369 26.8014C121.883 26.8447 121.763 26.3738 121.572 26.0273C120.906 24.6471 119.526 23.5484 117.921 23.6512Z" fill="white" fill-opacity="0.1"/>
<path d="M127.233 19.4074C125.23 19.4345 123.773 21.1232 123.189 22.8877C122.883 23.7375 122.943 24.6468 122.872 25.5291C122.839 26 122.774 26.4817 122.506 26.8877C122.616 26.8227 122.725 26.7469 122.828 26.6657C123.527 26.0162 123.718 25.0095 124.045 24.1489C124.76 22.3411 126.332 20.6848 128.439 20.9121C129.17 20.9771 129.869 21.199 130.513 21.5454C131.626 22.0921 132.145 21.1665 131.932 20.1598C131.157 22.6171 130.753 19.2018 127.233 19.4074ZM131.419 21.0637C131.413 21.0637 131.408 21.0691 131.408 21.0691C131.408 21.0637 131.413 21.0637 131.419 21.0637ZM122.85 25.8051C122.85 25.8105 122.85 25.816 122.85 25.8214C122.845 25.816 122.85 25.8105 122.85 25.8051Z" fill="white" fill-opacity="0.1"/>
<path d="M134.164 12.9718C134.262 13.0259 134.393 13.053 134.464 13.1504C134.459 13.145 134.453 13.1342 134.448 13.1288C134.994 14.0489 132.559 14.3683 131.73 15.8567C130.857 17.2532 131.49 18.9581 131.959 20.3871C132.287 19.2883 132.177 18.1084 132.57 17.0204C133.089 15.7431 134.535 15.0719 134.999 13.7837C135.026 13.3507 134.655 12.8148 134.164 12.9718ZM134.53 13.5185C134.53 13.5239 134.53 13.5239 134.53 13.5293C134.53 13.5239 134.53 13.5239 134.53 13.5185ZM134.53 13.5672C134.524 13.5834 134.519 13.5997 134.513 13.6159C134.519 13.5997 134.524 13.5834 134.53 13.5672Z" fill="white" fill-opacity="0.1"/>
<path d="M128.875 11.8564C129.967 13.9241 132.139 13.4532 134 12.9336C132.319 12.4897 130.436 12.7441 128.875 11.8564Z" fill="white" fill-opacity="0.1"/>
<path d="M116.939 6.30322C118.277 8.79844 118.866 11.5589 119.548 14.276C120.476 17.5019 121.098 20.7928 121.748 24.0782C121.911 24.7278 122.113 25.3719 122.081 26.0484C122.184 25.7995 122.288 25.5342 122.337 25.269C122.948 20.717 121.813 16.1758 119.996 12.0135C119.183 10.0109 118.266 8.02443 116.939 6.30322ZM118.075 8.82009C118.075 8.8255 118.08 8.83092 118.08 8.83633C118.08 8.83092 118.08 8.8255 118.075 8.82009ZM122.075 25.5505C122.075 25.5559 122.075 25.5613 122.075 25.5721C122.075 25.5613 122.075 25.5559 122.075 25.5505Z" fill="white" fill-opacity="0.1"/>
<path d="M106.346 8.17627C108.791 13.9299 111.018 19.835 112.153 25.9946C112.284 26.6603 112.35 27.3369 112.23 28.0081C112.366 27.7916 112.492 27.548 112.59 27.3044C113.381 24.5657 112.688 21.632 111.897 18.969C110.696 15.099 108.567 11.5375 106.346 8.17627Z" fill="white" fill-opacity="0.1"/>
<path d="M97.0356 11.8887C97.6305 12.6194 98.0235 13.4583 98.2745 14.3568C98.2745 14.3514 98.2691 14.346 98.2691 14.3406C98.2746 14.3622 98.2855 14.3839 98.2909 14.4055C98.2855 14.3893 98.28 14.3731 98.2745 14.3568C98.7767 15.9157 99.3497 17.4474 99.83 19.0117C100.278 20.4893 100.61 21.9994 101.107 23.4662C101.686 25.3552 102.521 27.2118 102.75 29.182C103.994 25.6151 101.407 18.9954 99.6281 15.7695C98.8694 14.4218 98.351 12.8142 97.0356 11.8887ZM98.5693 15.2283C98.5693 15.2337 98.5747 15.2445 98.5747 15.2499C98.5693 15.2445 98.5693 15.2391 98.5693 15.2283ZM98.5747 15.2553C98.5802 15.277 98.5856 15.2932 98.5966 15.3149C98.5911 15.2932 98.5802 15.277 98.5747 15.2553Z" fill="white" fill-opacity="0.1"/>
<path d="M88.5093 12.5342C89.6281 14.2229 89.8464 16.3122 90.4741 18.2066C91.3582 21.8547 91.9422 25.5786 93.0938 29.1509C93.1866 29.519 93.1921 29.9087 92.9628 30.2226C93.1539 30.0927 93.3449 29.9303 93.4267 29.703C93.8033 28.5609 93.5304 27.316 93.4759 26.1415C93.3012 23.4081 92.5098 20.7668 91.5056 18.2283C91.0417 17.0158 90.485 15.8359 89.9392 14.6559C89.5845 13.8873 89.1915 13.0754 88.5093 12.5342ZM93.0829 29.1076C93.0829 29.113 93.0884 29.1239 93.0884 29.1293C93.0829 29.1239 93.0829 29.1184 93.0829 29.1076Z" fill="white" fill-opacity="0.1"/>
<path d="M126.468 10.5796C127.2 11.8894 127.8 13.2697 128.308 14.6769C128.564 15.5376 128.864 16.3927 129.284 17.1938C129.797 18.3792 130.905 19.5321 130.884 20.8581C131.811 19.321 130.643 17.1992 130.059 15.6999C129.257 13.7676 128.046 11.9598 126.468 10.5796Z" fill="white" fill-opacity="0.1"/>
<path d="M124.133 7.27736C122.752 7.27194 122.714 8.93904 121.949 9.72929C121.284 10.6332 120.378 9.94038 119.608 9.58856C119.313 9.43701 119.008 9.28004 118.708 9.15555C119.024 9.61021 119.352 10.0595 119.755 10.4438C121.191 12.2137 123.368 10.958 123.98 9.15555C124.083 8.94445 124.122 8.57098 124.444 8.67923C125.568 8.92821 126.523 9.60479 127.593 9.98909C126.599 8.97151 125.683 7.43432 124.133 7.27736Z" fill="white" fill-opacity="0.1"/>
<path d="M104.114 5.30324C103.197 5.47645 103.05 6.53733 102.859 7.28969C102.869 7.24639 102.875 7.20309 102.886 7.15437C102.613 8.65367 102.575 11.1272 100.359 10.613C100.119 10.5643 99.8786 10.4886 99.6494 10.4236C100.872 11.8742 102.526 11.701 103.563 10.1584C104.267 9.09751 104.087 7.76599 104.49 6.60769C105.664 6.84043 106.794 7.40876 107.787 8.05828C107.121 7.00823 105.478 5.1138 104.114 5.30324ZM104.48 6.60769C104.48 6.6131 104.474 6.61311 104.474 6.61852C104.474 6.61311 104.474 6.60769 104.48 6.60769ZM104.425 6.63475C104.425 6.64017 104.419 6.64017 104.419 6.64558C104.419 6.64017 104.425 6.64017 104.425 6.63475Z" fill="white" fill-opacity="0.1"/>
<path d="M93.2737 7.20774C92.3514 8.02505 92.4714 9.35114 92.013 10.4012C91.6528 11.0832 91.0743 11.7435 90.2392 11.7544C89.3715 11.7652 88.7329 11.4134 89.9227 12.1765C91.1834 12.8639 92.6079 11.9709 93.2465 10.8559C93.7922 10.0277 93.5903 8.95602 94.076 8.11706C94.9656 8.09541 95.7952 8.52842 96.6248 8.79364C95.8061 7.97092 94.5454 6.43373 93.2737 7.20774ZM94.016 8.1333C94.0051 8.13871 93.9942 8.14954 93.9778 8.15495C93.9942 8.14954 94.0051 8.14412 94.016 8.1333ZM94.0214 8.14953C94.016 8.15495 94.0105 8.16036 94.0051 8.16577C94.0105 8.16036 94.016 8.15495 94.0214 8.14953Z" fill="white" fill-opacity="0.1"/>
<path d="M85.4092 8.7121C84.5578 8.92861 84.465 10.0111 84.0611 10.6607C83.4881 11.8352 82.4074 13.6105 80.852 13.0314C80.6937 12.9664 80.5409 12.8744 80.3936 12.7986C80.5245 13.0151 80.6555 13.2262 80.8411 13.4049C81.8835 14.3304 83.499 13.6538 84.3231 12.7499C85.0926 11.9705 85.4692 10.9421 85.7967 9.92453C86.7791 10.1248 87.6196 10.6715 88.4437 11.2019C87.7833 10.1519 86.8118 8.66339 85.4092 8.7121Z" fill="white" fill-opacity="0.1"/>
<path d="M113.931 4.11556C112.763 4.57022 112.687 6.20483 112.376 7.24405C111.917 8.34282 111.41 10.0045 109.92 9.87458C109.565 9.88541 108.986 9.54983 109.652 10.0532C111.218 11.1574 112.861 9.51194 113.554 8.16961C114.095 7.36854 114.078 6.36721 114.482 5.50661C115.765 5.49037 116.513 6.63784 117.38 7.40102C116.982 6.47005 116.704 5.34423 115.858 4.70013C115.312 4.32124 114.624 3.95319 113.931 4.11556ZM114.422 5.51202C114.411 5.51743 114.406 5.52826 114.395 5.53367C114.4 5.52826 114.411 5.51743 114.422 5.51202ZM114.351 5.52826C114.346 5.53367 114.34 5.53367 114.335 5.53908C114.335 5.53367 114.346 5.53367 114.351 5.52826ZM109.898 9.88C109.903 9.88 109.909 9.88 109.909 9.88C109.909 9.88 109.903 9.88 109.898 9.88Z" fill="white" fill-opacity="0.1"/>
</svg>
