<svg width="234" height="163" viewBox="0 0 234 163" fill="none" xmlns="http://www.w3.org/2000/svg">
<path d="M62.6178 142.209C62.911 142.616 63.2327 143.013 63.4692 143.449C62.0596 143.969 60.5271 144.101 59.0892 144.565C56.8566 145.407 54.6902 146.58 52.9307 148.207C55.9957 147.829 58.9378 146.854 61.7191 145.53C63.8381 144.546 66.1085 143.543 62.6178 142.209ZM63.6584 143.344C63.6489 143.354 63.63 143.373 63.6205 143.382C63.63 143.373 63.6395 143.354 63.6584 143.344Z" fill="white" fill-opacity="0.1"/>
<path d="M57.9164 142.604C54.3783 143.181 51.0011 144.468 47.6901 145.792C45.9967 146.36 44.379 147.268 42.5722 147.41C41.7586 147.23 41.0775 146.653 40.2639 146.436C37.9651 145.471 35.4582 145.622 33.0459 145.244C33.3297 145.433 33.6608 145.594 33.973 145.745C35.2596 146.407 36.6313 146.89 37.8611 147.637C39.9044 148.971 41.0491 150.305 43.6885 149.614C48.7969 148.63 53.5364 146.246 58.0677 143.758C58.9002 143.285 59.7422 142.803 60.5084 142.216C59.6476 142.349 58.7772 142.481 57.9164 142.604Z" fill="white" fill-opacity="0.1"/>
<path d="M31.6668 146.806C29.718 147.402 27.8355 148.178 26.0002 149.067C25.3759 149.228 24.8745 149.805 25.1015 150.467C25.584 151.574 27.1071 151.621 28.0152 152.283C28.6301 152.577 28.5355 153.296 28.5355 153.863C29.6234 152.52 28.6963 151.337 27.599 150.42C30.0207 149.493 32.3101 148.111 33.9845 146.096C33.2088 146.295 32.4236 146.541 31.6668 146.806Z" fill="white" fill-opacity="0.1"/>
<path d="M26.9363 153.134C25.4889 154.032 23.8145 154.439 22.2441 155.073C20.1629 155.953 18.1763 157.239 16.71 158.961C20.5129 158.024 24.6186 156.463 26.9363 153.134Z" fill="white" fill-opacity="0.1"/>
<path d="M34.1354 154.298C31.9974 154.885 29.9918 155.812 27.8917 156.521C25.4889 157.316 22.9725 158.13 21.0521 159.842C21.0143 159.832 20.967 159.814 20.9291 159.804C20.948 159.814 20.967 159.814 20.9859 159.823C19.9453 159.492 18.8668 159.236 17.7979 158.991C18.829 159.851 19.8412 160.864 21.0616 161.412C21.6103 161.516 22.1589 161.242 22.6414 161.015C24.6564 160.22 26.8133 159.804 28.8377 159.028C32.0163 157.676 34.684 155.377 37.6734 153.693C37.664 153.693 37.664 153.702 37.6545 153.702C37.8626 153.608 38.0897 153.523 38.2978 153.437C38.1653 153.428 38.0329 153.418 37.891 153.418C36.595 153.418 35.3557 153.92 34.1354 154.298ZM21.0994 159.832C21.0899 159.832 21.0805 159.842 21.0805 159.842C21.0805 159.842 21.0899 159.832 21.0994 159.832Z" fill="white" fill-opacity="0.1"/>
<path d="M55.5903 150.75C55.8836 150.987 56.2052 151.214 56.4796 151.469C53.3294 152.311 50.0184 152.671 46.9722 153.872C46.4141 154.099 45.8843 154.477 45.2599 154.506C43.7936 154.269 42.4314 153.626 40.9556 153.409C39.9529 153.238 38.9406 153.163 37.9189 153.181C38.5717 153.531 39.2244 153.91 39.8866 154.26C41.9584 155.187 43.7936 157.24 46.1965 157.088C47.6439 156.843 48.9683 156.095 50.34 155.603C52.4969 154.742 54.5876 153.759 56.5269 152.472C58.3527 151.517 56.8296 150.873 55.5903 150.75ZM55.7795 151.621C55.7512 151.63 55.7228 151.63 55.7038 151.64C55.7322 151.63 55.7606 151.63 55.7795 151.621Z" fill="white" fill-opacity="0.1"/>
<path d="M52.7988 148.46C53.4421 149.709 54.6719 150.542 55.968 150.996C55.2963 149.756 54.0286 149.047 52.7988 148.46Z" fill="white" fill-opacity="0.1"/>
<path d="M71.321 137.989C59.5622 138.68 47.8601 140.638 36.4607 143.57C28.5427 145.302 20.6908 147.364 13.1133 150.249C9.42389 151.829 1.43961 154.043 0.682802 158.442C0.27602 163.9 10.4077 162.509 13.8039 162.017C17.4744 161.336 15.1661 161.516 13.1322 161.176C9.94419 160.703 6.07503 160.882 3.37892 158.971C10.105 152.255 21.5044 149.54 30.3779 146.607C35.6661 144.876 41.134 143.873 46.6114 142.927C54.0375 141.499 71.917 138.717 78.3972 142.18C76.0511 145.689 70.3656 148.234 66.7424 150.438C71.4156 149.294 76.3254 148.007 80.1946 145.027C82.1433 143.514 82.4461 140.581 80.1378 139.257C77.4512 137.885 74.2726 137.951 71.321 137.989Z" fill="white" fill-opacity="0.1"/>
<path d="M69.9497 149.161C66.686 149.88 63.4128 150.665 60.2437 151.753C58.2666 152.434 56.3273 153.276 54.5771 154.43C55.2299 154.44 55.911 154.411 56.5732 154.364C61.3695 153.816 65.9387 151.753 69.9497 149.161Z" fill="white" fill-opacity="0.1"/>
<path d="M44.0288 156.862C43.4233 156.909 42.8179 156.966 42.2219 157.061C42.2408 157.061 42.2692 157.051 42.2881 157.051C37.4068 157.657 32.4781 158.205 27.748 159.615C25.1844 160.599 23.6802 160.684 27.5494 160.864C32.0618 160.939 36.508 159.813 40.8029 158.536C42.5057 158.026 44.1802 157.43 45.8167 156.729C45.2302 156.748 44.6153 156.815 44.0288 156.862ZM42.2125 157.061C42.1935 157.061 42.1746 157.07 42.1557 157.07C42.1746 157.061 42.1935 157.061 42.2125 157.061Z" fill="white" fill-opacity="0.1"/>
<path d="M51.1533 116.714C53.1683 120.773 57.274 123.204 60.708 125.947C66.2988 130.64 72.7317 134.187 78.7672 138.245C79.2496 138.501 79.6564 140.128 79.4861 138.794C78.9564 136.495 75.4846 133.837 73.7439 132.219C69.7234 128.729 65.2677 125.701 60.689 123.005C57.4064 121.085 53.7359 119.59 51.1533 116.714ZM51.702 117.282L51.7115 117.291L51.702 117.282ZM52.0047 117.566C52.0142 117.575 52.0142 117.575 52.0236 117.585C52.0142 117.575 52.0047 117.575 52.0047 117.566Z" fill="white" fill-opacity="0.1"/>
<path d="M16.9373 126.249C13.5033 132.02 10.0409 137.195 7.10833 143.211C5.1028 146.891 3.95813 150.959 2.51074 154.885C3.57973 153.788 4.57303 152.577 5.4812 151.328C6.46504 150.051 7.15562 148.594 7.97865 147.213C8.89627 145.586 10.0031 144.063 10.8167 142.379C13.2574 137.166 15.6129 131.859 16.9373 126.249Z" fill="white" fill-opacity="0.1"/>
<path d="M47.7654 108.435C43.603 108.946 39.5636 110.394 35.6755 111.926C31.2861 113.676 27.0007 115.663 23.0842 118.321C21.3625 119.513 17.3798 122.096 16.9257 124.092C16.7933 124.792 17.1244 125.501 17.6447 125.956C17.3514 125.341 17.2757 124.574 17.7677 124.035C20.7287 121.878 24.2856 120.573 27.4737 118.756C32.2131 116.287 36.9053 113.733 41.7205 111.406C44.0855 110.365 46.3843 108.956 48.9669 108.54C49.0047 108.53 49.052 108.549 49.0804 108.54C48.6736 108.388 48.2006 108.426 47.7654 108.435ZM17.4366 124.745C17.4366 124.754 17.4366 124.764 17.4271 124.773C17.4271 124.764 17.4271 124.754 17.4366 124.745ZM17.5028 125.577C17.5028 125.577 17.5028 125.587 17.5122 125.587C17.5122 125.587 17.5122 125.587 17.5028 125.577Z" fill="white" fill-opacity="0.1"/>
<path d="M50.1408 109.865C48.6082 110.735 47.0851 112.419 47.842 114.292C48.5704 115.976 50.5003 116.619 52.0801 117.262C51.7679 116.884 51.4368 116.496 51.1057 116.127C48.7123 113.838 48.7407 112.759 50.1408 109.865Z" fill="white" fill-opacity="0.1"/>
<path d="M46.6978 90.6587C46.7924 90.7628 46.9248 90.8574 46.9627 90.9993C44.8247 92.5129 42.0529 93.0143 39.6122 93.9603C33.9551 96.0131 28.1372 97.6024 22.5179 99.7782C18.3176 101.67 10.0212 105.662 11.1469 111.253C11.3551 112.294 12.3484 112.833 13.3322 112.843C12.8781 112.587 12.3673 112.322 12.1402 111.83C11.478 107.904 17.3811 105.596 20.1529 103.988C24.6843 101.472 29.6035 99.8255 34.4943 98.1606C34.3997 98.1984 34.3051 98.2268 34.2105 98.2646C35.2322 98.1416 49.5642 91.5479 46.6978 90.6587Z" fill="white" fill-opacity="0.1"/>
<path d="M14.3923 112.21C10.6083 112.996 15.4424 112.74 16.5398 113.97C17.798 115.171 18.2331 116.921 19.1508 118.35C19.4346 118.738 19.9738 118.936 20.4279 119.078C20.2481 118.87 20.0495 118.643 19.8792 118.407C19.4156 117.47 19.6048 116.335 19.2643 115.342C18.7724 113.09 16.6722 111.567 14.3923 112.21Z" fill="white" fill-opacity="0.1"/>
<path d="M35.6022 100.8C34.1831 100.81 32.8114 101.188 31.4776 101.623C31.5249 101.604 31.5627 101.595 31.61 101.576C26.038 103.638 18.4889 105.672 16.928 112.238C16.8523 112.701 16.8712 113.193 16.9091 113.666C17.2023 113.023 17.5524 112.37 18.0348 111.84C20.4282 109.22 23.7582 107.829 26.7002 105.937C29.6802 104.253 32.329 101.879 35.6022 100.8ZM29.8694 102.2C29.8315 102.21 29.7937 102.229 29.7558 102.238C29.7937 102.229 29.8315 102.21 29.8694 102.2ZM17.0699 113.316C17.0699 113.325 17.0604 113.325 17.0604 113.335C17.0699 113.325 17.0699 113.325 17.0699 113.316Z" fill="white" fill-opacity="0.1"/>
<path d="M47.2947 92.7324C40.597 95.5893 40.3794 101.899 44.5986 107.14C46.2257 108.427 45.7149 108.058 45.0621 106.629C44.2959 103.895 43.785 100.991 44.3337 98.1719C44.8256 96.1664 46.169 94.4352 47.2947 92.7324Z" fill="white" fill-opacity="0.1"/>
<path d="M9.75586 96.6299C10.664 97.4151 11.3546 98.4084 12.102 99.3354C12.9723 100.215 13.7953 101.114 14.2494 102.277C14.9116 99.5814 12.2249 97.1218 9.75586 96.6299Z" fill="white" fill-opacity="0.1"/>
<path d="M37.7405 76.4715C31.6104 77.8242 25.5276 79.5933 19.8988 82.4313C15.7648 84.5598 8.04537 88.1073 7.07099 93.0265C6.97639 93.8211 7.19397 94.6725 7.81833 95.2023C7.26019 94.1333 7.84671 92.913 8.62244 92.1089C10.9402 89.8574 13.9863 88.5803 16.8148 87.0951C23.9572 83.1029 31.5252 80.0001 39.1027 76.935C40.1528 76.4998 41.2502 76.1498 42.3097 75.7241C40.7866 75.8187 39.2446 76.1404 37.7405 76.4715Z" fill="white" fill-opacity="0.1"/>
<path d="M41.9858 77.709C39.0532 79.4685 37.1896 82.5147 38.164 85.977C38.9492 88.5029 40.1506 90.9246 41.8723 92.9491C41.7398 92.3626 41.5695 91.7666 41.4276 91.1706C40.879 88.0299 39.7343 84.8418 40.3114 81.6349C40.6803 80.2443 41.4844 79.0334 41.9858 77.709Z" fill="white" fill-opacity="0.1"/>
<path d="M24.8917 86.3952C19.8495 87.748 14.5519 89.9333 11.5436 94.4173C11.2409 94.9093 10.9855 95.4579 10.7773 95.9972C12.0355 94.966 13.4924 94.2754 14.9019 93.4713C18.4211 91.7118 21.5713 89.3657 24.8728 87.2656C26.9635 85.9884 28.3257 85.5627 24.8917 86.3952ZM12.4707 93.1781C12.4896 93.1592 12.5085 93.1402 12.5275 93.1213C12.5085 93.1402 12.4896 93.1592 12.4707 93.1781ZM12.5275 93.1213C12.5558 93.0929 12.5748 93.0646 12.6031 93.0362C12.5748 93.0646 12.5558 93.0929 12.5275 93.1213Z" fill="white" fill-opacity="0.1"/>
<path d="M9.42395 77.833C9.29151 79.4601 9.49963 81.1251 9.57531 82.7617C9.84966 84.2186 10.5686 85.5619 11.3727 86.7917C11.3822 86.5931 11.3822 86.385 11.3822 86.1863C11.3822 86.2052 11.3822 86.2147 11.3822 86.2336C11.2781 84.0861 11.0889 81.8536 10.4267 79.8007C10.124 79.129 9.72668 78.4952 9.42395 77.833Z" fill="white" fill-opacity="0.1"/>
<path d="M38.2601 58.5066C36.756 58.9701 35.1856 59.1688 33.672 59.6134C33.7099 59.604 33.7382 59.5945 33.7761 59.585C25.2809 61.8082 10.7787 65.4219 4.96074 72.1669C3.12549 74.2765 2.16056 78.0795 4.57288 80.1134C5.62294 80.9742 7.10818 80.9364 8.33799 80.5675C7.3636 80.4445 6.33245 80.2269 5.62295 79.4985C1.88623 74.2671 15.5465 68.1653 19.2265 66.4436C25.4985 63.6907 32.0638 61.4203 38.2601 58.5066Z" fill="white" fill-opacity="0.1"/>
<path d="M37.4263 61.5503C34.3045 62.7706 33.2165 66.6871 34.4937 69.6197C35.241 71.7482 35.96 74.0659 37.852 75.466C37.6155 74.8511 37.3412 74.2268 37.1614 73.574C36.8019 72.0415 36.783 70.4522 36.433 68.9102C35.6478 66.4411 35.8749 63.6883 37.4263 61.5503ZM36.9628 62.2882C36.9628 62.2976 36.9533 62.2976 36.9533 62.3071C36.9628 62.2976 36.9628 62.2976 36.9628 62.2882Z" fill="white" fill-opacity="0.1"/>
<path d="M21.5812 68.9864C17.2768 69.8094 12.8685 71.5217 10.2953 75.2679C8.90469 77.6329 8.92361 77.3018 11.0521 75.9774C14.8834 73.8678 18.6013 71.569 22.3947 69.3837C24.949 68.1633 22.8772 68.835 21.5812 68.9864Z" fill="white" fill-opacity="0.1"/>
<path d="M32.0818 43.5854C30.4358 44.768 28.4208 45.2315 26.5193 45.818C24.2962 46.4897 22.0636 47.114 19.8027 47.6533C15.9903 48.6277 12.4049 50.3305 8.94252 52.1752C6.34101 53.5753 -1.8514 58.6742 0.381175 62.1745C0.589296 62.3731 1.31772 62.761 0.79742 62.3069C-0.92431 59.9513 6.83293 56.4322 8.47898 55.4105C8.46006 55.42 8.43168 55.4294 8.41276 55.4484C10.248 54.4834 12.1306 53.6131 13.9658 52.6576C13.9469 52.6671 13.9185 52.6766 13.8996 52.6955C18.1188 50.5291 22.7258 49.2615 26.9261 47.0478C28.7519 46.1018 30.7763 45.222 32.0818 43.5854ZM14.505 52.3833C14.4767 52.4022 14.4388 52.4211 14.4104 52.4306C14.4388 52.4117 14.4672 52.4022 14.505 52.3833ZM14.3821 52.4401C14.3253 52.4684 14.2685 52.4968 14.2023 52.5347C14.2118 52.5252 14.2307 52.5252 14.2402 52.5157C14.2023 52.5347 14.1739 52.5536 14.1361 52.5725C14.2118 52.5347 14.2875 52.4968 14.3537 52.459C14.3442 52.459 14.3348 52.4684 14.3253 52.4684C14.3442 52.459 14.3631 52.4495 14.3821 52.4401ZM14.2023 52.5347C14.1834 52.5441 14.1645 52.5536 14.1456 52.563C14.1645 52.5536 14.1834 52.5441 14.2023 52.5347ZM14.1361 52.5725C14.1266 52.5725 14.1266 52.5725 14.1361 52.5725C14.1266 52.5725 14.1266 52.5725 14.1361 52.5725ZM14.0983 52.582C14.0699 52.5914 14.0415 52.6103 14.0131 52.6198C14.051 52.6103 14.0793 52.6009 14.0983 52.582ZM13.8996 52.686C13.8145 52.7239 13.7388 52.7712 13.6536 52.809C13.7388 52.7712 13.8239 52.7333 13.8996 52.686ZM14.2969 52.4874C14.278 52.4968 14.2591 52.5063 14.2402 52.5157C14.2685 52.4968 14.2969 52.4874 14.3348 52.4684C14.3253 52.4684 14.3158 52.4779 14.2969 52.4874Z" fill="white" fill-opacity="0.1"/>
<path d="M1.72559 62.4887C5.63258 64.4091 4.99876 64.8064 6.46506 68.4485C6.67319 68.7701 6.99483 69.0256 7.31647 69.2148C7.17457 68.931 7.05159 68.6471 6.97591 68.3444C6.83401 67.1903 7.14619 65.9983 6.74887 64.8631C6.14342 62.7346 3.68381 62.167 1.72559 62.4887Z" fill="white" fill-opacity="0.1"/>
<path d="M30.9482 47.0791C29.5103 49.7847 30.0022 53.1619 31.4023 55.7918C31.8091 56.4919 32.1875 57.3149 32.9727 57.6554C33.1051 57.7217 33.739 58.0149 33.5592 57.8352C32.4051 56.7189 32.4997 54.9877 32.2159 53.5119C31.9226 51.3361 31.1847 49.2455 30.9482 47.0791ZM33.5498 57.8257C33.5498 57.8257 33.5592 57.8257 33.5498 57.8257C33.5592 57.8257 33.5498 57.8257 33.5498 57.8257Z" fill="white" fill-opacity="0.1"/>
<path d="M17.4002 54.1998C12.3485 54.5687 7.88335 57.1703 5.93457 61.9665C9.72806 59.5069 13.6067 57.1513 17.5042 54.862C17.4759 54.8715 17.4475 54.8904 17.4191 54.8998C19.1408 54.0201 19.8125 54.0579 17.4002 54.1998Z" fill="white" fill-opacity="0.1"/>
<path d="M5.25265 45.5632C5.25265 45.6105 5.25265 45.6484 5.24319 45.6957V45.7051C5.05399 48.0039 4.63774 50.3311 4.85533 52.6299C6.29325 50.5203 6.51084 47.7863 5.25265 45.5632Z" fill="white" fill-opacity="0.1"/>
<path d="M20.1626 30.1924C18.5639 31.1762 16.6435 31.4789 14.9312 32.2547C12.7932 33.125 10.6647 34.0426 8.63082 35.14C5.58468 36.8712 -1.43468 41.1093 1.48848 45.2528C1.9804 45.7068 2.70882 45.7068 3.33319 45.7541C2.98317 45.5271 2.56693 45.3379 2.2642 45.0257C0.807355 42.1972 6.86179 39.7092 8.64028 38.2618C11.2134 36.5874 13.7109 34.8089 16.2462 33.0682C17.5233 32.0938 19.1599 31.46 20.1626 30.1924ZM19.6139 30.5235C19.6045 30.5235 19.6045 30.5329 19.595 30.5329C19.6045 30.5329 19.6139 30.5329 19.6139 30.5235Z" fill="white" fill-opacity="0.1"/>
<path d="M19.5016 32.7083C17.5907 35.2435 20.0125 38.4221 21.649 40.4466C23.2478 42.3859 25.8115 42.8399 27.8454 44.1171C29.7658 45.3658 28.7914 44.5522 28.0062 43.3981C27.344 42.5278 26.4453 41.8939 25.5844 41.2412C24.4114 40.3709 23.4275 39.264 22.5099 38.1288C21.299 36.4828 19.2178 34.9597 19.5016 32.7083Z" fill="white" fill-opacity="0.1"/>
<path d="M8.83673 39.4623C6.14062 40.2096 4.17293 42.5462 3.20801 45.1004C4.01211 44.5707 4.83513 44.0031 5.6014 43.3976C7.1623 42.3003 8.43941 40.815 10.1328 39.9163C10.6058 39.6798 11.0882 39.4528 11.5612 39.2257C10.6436 39.169 9.72598 39.2352 8.83673 39.4623ZM10.6247 39.6704C10.6152 39.6798 10.6058 39.6798 10.5963 39.6893C10.6058 39.6798 10.6152 39.6798 10.6247 39.6704Z" fill="white" fill-opacity="0.1"/>
<path d="M11.4867 23.9196C9.25409 24.3169 7.64588 26.5778 7.30532 28.7253C7.06882 30.57 7.07828 32.4714 7.3337 34.3067C7.9013 33.0485 8.42161 31.7714 8.84731 30.4659C9.25409 28.9996 9.84061 27.5711 11.0515 26.5684C11.9691 25.471 13.0003 26.7386 13.7855 27.3441C14.7315 28.1576 15.7815 28.8198 16.8694 29.4158C16.4437 28.8009 15.9991 28.1576 15.5734 27.5333C14.5517 26.0481 13.6341 23.7398 11.4867 23.9196Z" fill="white" fill-opacity="0.1"/>
<path d="M96.0791 0.0238318C90.5828 1.2631 91.1504 21.6779 92.2573 26.266C92.3992 26.985 92.5789 27.7134 92.7681 28.4135C92.9668 27.0228 93.1654 25.6322 93.26 24.2321C93.8938 18.8683 92.9857 5.96474 96.4481 2.23748C96.9589 2.22802 97.1197 3.04159 97.4887 3.34431C98.6144 4.839 99.4847 6.50397 100.242 8.21624C105.908 22.7658 108.122 38.5073 109.134 54.0218C109.134 54.0124 109.134 54.0029 109.134 53.9934C109.475 61.5899 109.985 74.0961 105.88 80.6046C102.171 76.6124 100.459 69.4606 99.0117 64.2103C97.5454 57.3423 96.0413 50.4743 94.1493 43.7009C93.8182 53.7569 96.0224 63.69 98.8793 73.292C99.8442 76.1867 100.752 79.214 102.559 81.7114C105.236 84.5589 108.027 84.048 109.408 80.3397C110.458 77.4071 110.326 74.2001 110.468 71.1351C110.581 67.3227 110.477 63.5103 110.364 59.7073C109.702 44.1739 108.027 28.5648 104.271 13.4666C103.288 9.87175 102.294 6.22017 100.582 2.89023C99.7401 1.22526 98.0279 -0.20321 96.0791 0.0238318ZM96.4481 2.19018C96.4575 2.19018 96.4575 2.19018 96.467 2.19018C96.4575 2.19964 96.4575 2.19018 96.4481 2.19018ZM101.85 12.4354C101.859 12.4733 101.878 12.5111 101.888 12.5489C101.878 12.5111 101.869 12.4733 101.85 12.4354ZM101.916 12.6152C101.925 12.6435 101.935 12.6719 101.944 12.7003C101.935 12.6719 101.925 12.6435 101.916 12.6152ZM109.134 54.0313C109.134 54.0597 109.134 54.0975 109.143 54.1259C109.134 54.0975 109.134 54.0691 109.134 54.0313Z" fill="white" fill-opacity="0.1"/>
<path d="M95.7183 32.0737C94.3182 36.3591 93.7979 41.1459 95.4724 45.4219C96.2765 46.5666 97.9982 46.3206 99.1996 46.7463C95.7089 44.0407 96.4467 45.3462 96.4373 40.7675C96.6454 37.8444 96.5508 34.8928 95.7183 32.0737Z" fill="white" fill-opacity="0.1"/>
<path d="M99.7324 47.4656C99.9973 49.4616 99.5905 51.4388 99.4865 53.4254C99.4013 55.4309 99.3919 57.4554 99.6 59.4609C99.6 59.442 99.6 59.4325 99.5905 59.4136C99.6 59.5082 99.6095 59.6123 99.6189 59.7069C99.6095 59.6407 99.6094 59.5839 99.6 59.5177C99.9784 62.5733 100.357 65.6384 101.142 68.6183C101.265 69.2237 101.501 70.0846 102.296 69.9048C103.403 69.4413 103.885 68.1547 104.444 67.1709C103.772 67.6817 103.11 68.2588 102.334 68.6277C101.908 63.5098 102.012 58.3446 101.407 53.2362C101.218 51.2307 100.953 49.1305 99.7324 47.4656Z" fill="white" fill-opacity="0.1"/>
<path d="M103.762 35.3462C103.752 38.9126 103.194 42.4696 103.374 46.036C101.274 46.3104 101.321 48.543 101.406 50.189C101.434 54.096 101.907 57.9841 102.645 61.8154C102.929 63.3574 103.364 64.8805 103.771 66.3846C104.253 63.3479 104.433 60.245 104.093 57.18C103.913 54.5028 103.412 51.7878 103.657 49.1011C104.812 49.2808 106.079 48.7511 106.382 47.5402C106.713 45.9131 105.795 44.3427 105.521 42.7629C104.821 40.3222 104.49 37.7585 103.762 35.3462Z" fill="white" fill-opacity="0.1"/>
<path d="M96.3547 11.442C93.3464 12.7002 95.6168 17.7235 96.2412 19.956C96.2885 18.2154 96.1561 16.4274 96.6007 14.7246C97.4332 19.4452 98.4643 24.1468 98.7292 28.9525C98.8522 30.3526 98.8332 31.9041 99.7319 33.0677C100.366 33.7677 101.359 34.1272 102.267 33.815C102.031 33.7488 101.775 33.7015 101.539 33.6069C99.6563 32.6325 100.65 30.2486 100.659 28.5836C100.82 26.5686 100.668 24.5347 100.385 22.5386C99.9779 19.8898 99.1454 17.3356 98.4454 14.7625C98.0102 13.5705 98.2373 11.092 96.3547 11.442Z" fill="white" fill-opacity="0.1"/>
<path d="M95.9179 19.2939C95.5489 22.4063 95.6152 25.6038 96.0976 28.6972C96.249 29.7 96.5233 30.6838 96.6936 31.6866C96.7409 32.3299 95.8327 32.4623 95.3408 32.4528C98.7938 34.3448 98.0464 28.8486 97.8383 26.9471C97.4599 24.3361 96.4287 21.8671 95.9179 19.2939ZM96.7031 31.8569V31.8663C96.7031 31.8663 96.7031 31.8663 96.7031 31.8569ZM96.6747 31.9609C96.6652 31.9798 96.6558 31.9988 96.6463 32.0177C96.6652 31.9988 96.6747 31.9798 96.6747 31.9609Z" fill="white" fill-opacity="0.1"/>
<path d="M100.459 2.14307C105.246 8.30155 111.461 12.9937 117.676 17.5913C119.483 18.9914 121.337 20.3442 123.258 21.6023C124.346 22.3686 125.519 23.0687 126.862 23.2484C128.868 23.3903 130.807 22.6051 132.793 22.397C133.418 22.2835 134.042 22.151 134.657 21.9807C133.749 21.8578 132.812 21.7064 131.904 21.574C130.239 21.2334 128.413 21.801 126.853 21.0253C124.166 18.9725 121.706 16.5885 118.811 14.7817C115.368 12.445 111.858 10.2219 108.339 8.01775C105.577 6.23926 103.079 4.08237 100.459 2.14307Z" fill="white" fill-opacity="0.1"/>
<path d="M139.2 52.7257C136.419 52.9149 133.533 53.1325 130.97 54.2866C130.156 54.6555 129.371 55.0529 128.643 55.5826C130.099 55.3934 131.585 55.1948 133.07 55.1096C135.511 55.1096 137.932 54.7785 140.241 53.946C141.035 53.6906 141.868 53.5014 142.662 53.2649C141.546 52.9054 140.373 52.6878 139.2 52.7257Z" fill="white" fill-opacity="0.1"/>
<path d="M131.091 53.613C129.19 54.7199 127.78 56.451 126.181 57.9363C126.229 57.889 126.276 57.8417 126.323 57.7944C121.962 62.1933 117.819 66.8287 113.997 71.7006C112.181 73.9332 110.932 76.5442 109.153 78.7957C112.01 77.3294 114.054 74.6995 116.343 72.5048C122.199 66.999 126.437 60.0837 131.091 53.613Z" fill="white" fill-opacity="0.1"/>
<path d="M131.289 32.8977C130.135 39.0278 131.005 45.2431 131.251 51.4015C134.931 45.0633 132.122 39.4914 131.289 32.8977Z" fill="white" fill-opacity="0.1"/>
<path d="M135.915 19.8145C137.088 21.2145 137.873 22.8795 138.658 24.5161C140.579 28.4515 141.988 32.6044 142.793 36.9088C143.748 41.5726 144.883 46.208 145.46 50.938C145.574 52.0638 145.659 53.199 145.744 54.3247C146.009 53.5395 146.246 52.726 146.444 51.9029C147.863 45.2241 145.47 34.8086 142.414 28.7447C142.452 28.811 142.48 28.8866 142.518 28.9529C141.459 26.796 140.106 24.7999 138.725 22.8322C137.902 21.7443 137.05 20.5996 135.915 19.8145Z" fill="white" fill-opacity="0.1"/>
<path d="M151.581 48.6283C149.235 48.8648 147.409 50.6433 147.409 53.0462C147.788 52.5826 148.147 52.0718 148.601 51.665C150.947 49.7352 154.429 50.8325 156.86 52.0623C157.815 52.6489 159.953 55.345 161.003 54.0584C160.909 54.0773 160.795 54.1152 160.691 54.1341C160.701 54.1341 160.71 54.1341 160.71 54.1341C159.48 53.8408 158.894 51.5609 157.919 50.7001C156.283 49.1392 153.851 48.2499 151.581 48.6283Z" fill="white" fill-opacity="0.1"/>
<path d="M168.808 45.9339C165.639 46.2933 164.948 49.8598 163.671 52.2059C163.311 52.9343 162.838 53.587 162.157 54.0411C163.179 53.9938 164.078 53.4262 164.797 52.7167C166.083 51.591 166.783 49.9354 168.098 48.8475C170.539 47.684 174.834 50.5503 177.066 51.695C177.549 51.9788 178.022 52.2626 178.552 52.4329C177.823 51.6383 177.237 50.7206 176.489 49.9354C174.427 47.9488 171.911 45.5744 168.808 45.9339Z" fill="white" fill-opacity="0.1"/>
<path d="M185.752 45.1291C183.491 45.3277 181.438 46.8697 180.52 48.932C180.01 49.9631 179.574 51.0416 179.187 52.1295C179.716 51.6849 180.246 51.1929 180.747 50.701C183.775 47.0116 186.603 47.3333 190.548 49.3955C191.475 49.878 192.421 50.3415 193.301 50.9186C193.878 51.4011 194.682 51.7322 195.373 51.2592C196.328 50.6253 196.659 49.4239 197.132 48.4495C196.461 48.9982 195.827 49.6604 195.023 50.001C194.644 50.0861 194.436 49.5374 194.152 49.3388C191.891 47.1346 189.091 44.8074 185.752 45.1291ZM195.401 49.8023C195.392 49.8118 195.373 49.8212 195.363 49.8307C195.382 49.8212 195.392 49.8118 195.401 49.8023ZM194.701 50.001C194.72 50.001 194.739 50.0104 194.758 50.0104C194.739 50.0104 194.72 50.001 194.701 50.001Z" fill="white" fill-opacity="0.1"/>
<path d="M204.396 41.3356C201.029 41.4681 198.654 44.3912 197.509 47.3144C197.367 47.7401 197.216 48.1753 197.074 48.5915C197.945 47.8347 198.758 47.0306 199.647 46.3022C199.638 46.3116 199.628 46.3211 199.619 46.3211C203.848 42.3763 207.017 43.1047 210.962 46.8792C211.321 47.1346 211.747 47.0022 212.106 46.8414C211.264 46.9171 211.056 46.094 210.725 45.4886C209.571 43.0763 207.178 41.1559 204.396 41.3356Z" fill="white" fill-opacity="0.1"/>
<path d="M220.536 33.9193C217.064 33.9666 214.538 36.9181 213.526 40.0021C212.996 41.4873 213.101 43.0766 212.978 44.6186C212.921 45.4416 212.807 46.2836 212.344 46.9931C212.533 46.8795 212.722 46.7471 212.902 46.6052C214.113 45.47 214.444 43.7104 215.012 42.2063C216.251 39.0466 218.975 36.1519 222.627 36.5492C223.895 36.6627 225.105 37.0506 226.222 37.656C228.152 38.6115 229.05 36.9938 228.681 35.2342C227.338 39.5291 226.638 33.5598 220.536 33.9193ZM227.792 36.8141C227.783 36.8141 227.773 36.8235 227.773 36.8235C227.773 36.8141 227.783 36.8141 227.792 36.8141ZM212.94 45.1011C212.94 45.1105 212.94 45.12 212.94 45.1294C212.93 45.12 212.94 45.1105 212.94 45.1011Z" fill="white" fill-opacity="0.1"/>
<path d="M232.55 22.6714C232.72 22.766 232.947 22.8133 233.07 22.9836C233.061 22.9741 233.051 22.9552 233.042 22.9458C233.988 24.554 229.769 25.1121 228.331 27.7136C226.817 30.1543 227.915 33.1342 228.728 35.6316C229.296 33.7113 229.107 31.649 229.788 29.7475C230.686 27.5149 233.193 26.3419 233.997 24.0904C234.045 23.3336 233.401 22.3971 232.55 22.6714ZM233.184 23.6269C233.184 23.6363 233.184 23.6363 233.184 23.6458C233.184 23.6363 233.184 23.6363 233.184 23.6269ZM233.184 23.712C233.174 23.7404 233.165 23.7688 233.155 23.7972C233.165 23.7688 233.174 23.7404 233.184 23.712Z" fill="white" fill-opacity="0.1"/>
<path d="M223.384 20.7212C225.276 24.335 229.041 23.5119 232.267 22.6038C229.353 21.828 226.089 22.2727 223.384 20.7212Z" fill="white" fill-opacity="0.1"/>
<path d="M202.694 11.0159C205.012 15.377 206.034 20.2016 207.216 24.9505C208.824 30.5887 209.903 36.3404 211.029 42.0827C211.312 43.2179 211.663 44.3436 211.606 45.5261C211.785 45.091 211.965 44.6274 212.05 44.1639C213.11 36.208 211.142 28.271 207.992 20.9962C206.582 17.496 204.993 14.0242 202.694 11.0159ZM204.662 15.4148C204.662 15.4243 204.672 15.4337 204.672 15.4432C204.672 15.4337 204.671 15.4243 204.662 15.4148ZM211.596 44.6558C211.596 44.6653 211.596 44.6747 211.596 44.6936C211.596 44.6747 211.596 44.6653 211.596 44.6558Z" fill="white" fill-opacity="0.1"/>
<path d="M184.332 14.2891C188.57 24.3451 192.43 34.666 194.398 45.4315C194.625 46.5951 194.738 47.7776 194.53 48.9507C194.766 48.5723 194.984 48.1465 195.154 47.7208C196.526 42.9341 195.325 37.8067 193.953 33.1524C191.872 26.3885 188.182 20.1637 184.332 14.2891Z" fill="white" fill-opacity="0.1"/>
<path d="M168.194 20.7776C169.225 22.0547 169.907 23.521 170.342 25.0914C170.342 25.0819 170.332 25.0724 170.332 25.063C170.342 25.1008 170.361 25.1387 170.37 25.1765C170.361 25.1481 170.351 25.1197 170.342 25.0914C171.212 27.8159 172.205 30.4931 173.038 33.227C173.814 35.8096 174.391 38.4489 175.252 41.0126C176.254 44.3142 177.702 47.559 178.099 51.0024C180.256 44.7683 175.772 33.1986 172.688 27.5604C171.373 25.2049 170.474 22.3953 168.194 20.7776ZM170.853 26.6144C170.853 26.6239 170.862 26.6428 170.862 26.6523C170.853 26.6428 170.853 26.6334 170.853 26.6144ZM170.862 26.6617C170.872 26.6996 170.881 26.7279 170.9 26.7658C170.89 26.7279 170.872 26.6996 170.862 26.6617Z" fill="white" fill-opacity="0.1"/>
<path d="M153.416 21.9058C155.355 24.8573 155.734 28.5089 156.822 31.8199C158.354 38.196 159.366 44.7045 161.363 50.9481C161.523 51.5914 161.533 52.2725 161.135 52.8212C161.467 52.5942 161.798 52.3104 161.94 51.913C162.592 49.917 162.119 47.7412 162.025 45.6883C161.722 40.911 160.35 36.2945 158.61 31.8577C157.806 29.7387 156.841 27.6764 155.895 25.6141C155.28 24.2708 154.599 22.8518 153.416 21.9058ZM161.344 50.8724C161.344 50.8819 161.353 50.9008 161.353 50.9103C161.344 50.9008 161.344 50.8914 161.344 50.8724Z" fill="white" fill-opacity="0.1"/>
<path d="M219.211 18.4893C220.479 20.7786 221.519 23.1909 222.399 25.6505C222.844 27.1547 223.364 28.6494 224.092 30.0494C224.982 32.1212 226.902 34.1362 226.864 36.4539C228.472 33.7672 226.448 30.0589 225.436 27.4385C224.045 24.0612 221.945 20.9016 219.211 18.4893Z" fill="white" fill-opacity="0.1"/>
<path d="M215.162 12.7185C212.769 12.7091 212.702 15.6228 211.378 17.004C210.224 18.5838 208.654 17.3729 207.32 16.758C206.809 16.4931 206.279 16.2188 205.759 16.0012C206.307 16.7958 206.875 17.581 207.575 18.2527C210.063 21.3461 213.838 19.1514 214.897 16.0012C215.077 15.6322 215.143 14.9795 215.701 15.1687C217.65 15.6039 219.306 16.7864 221.16 17.458C219.438 15.6795 217.849 12.9929 215.162 12.7185Z" fill="white" fill-opacity="0.1"/>
<path d="M180.464 9.26698C178.875 9.5697 178.619 11.4239 178.288 12.7388C178.307 12.6632 178.316 12.5875 178.335 12.5023C177.862 15.1228 177.796 19.446 173.955 18.5473C173.539 18.4622 173.123 18.3297 172.726 18.2162C174.845 20.7515 177.711 20.4488 179.508 17.7527C180.729 15.8985 180.417 13.5713 181.117 11.5469C183.151 11.9536 185.109 12.947 186.83 14.0822C185.676 12.2469 182.829 8.93587 180.464 9.26698ZM181.098 11.5469C181.098 11.5563 181.088 11.5563 181.088 11.5658C181.088 11.5563 181.088 11.5469 181.098 11.5469ZM181.003 11.5942C181.003 11.6036 180.994 11.6036 180.994 11.6131C180.994 11.6036 181.003 11.6036 181.003 11.5942Z" fill="white" fill-opacity="0.1"/>
<path d="M161.674 12.596C160.075 14.0245 160.284 16.3422 159.489 18.1774C158.864 19.3694 157.862 20.5235 156.414 20.5425C154.91 20.5614 153.803 19.9465 155.866 21.2803C158.051 22.4818 160.52 20.9208 161.627 18.9721C162.573 17.5247 162.223 15.6516 163.065 14.1853C164.607 14.1474 166.045 14.9042 167.483 15.3678C166.064 13.9298 163.878 11.2432 161.674 12.596ZM162.961 14.2137C162.942 14.2231 162.923 14.242 162.894 14.2515C162.923 14.242 162.942 14.2326 162.961 14.2137ZM162.97 14.242C162.961 14.2515 162.951 14.261 162.942 14.2704C162.951 14.261 162.961 14.2515 162.97 14.242Z" fill="white" fill-opacity="0.1"/>
<path d="M148.042 15.2269C146.567 15.6053 146.406 17.4973 145.706 18.6325C144.712 20.6854 142.839 23.7883 140.143 22.776C139.869 22.6625 139.604 22.5017 139.349 22.3693C139.576 22.7477 139.803 23.1166 140.124 23.4288C141.931 25.0465 144.731 23.8639 146.16 22.2841C147.494 20.9219 148.146 19.1244 148.714 17.346C150.417 17.696 151.874 18.6514 153.302 19.5785C152.157 17.7433 150.474 15.1418 148.042 15.2269Z" fill="white" fill-opacity="0.1"/>
<path d="M197.48 7.19263C195.456 7.98727 195.323 10.8442 194.784 12.6605C193.99 14.5809 193.11 17.4852 190.527 17.2581C189.912 17.277 188.909 16.6905 190.064 17.5703C192.779 19.5001 195.626 16.6243 196.828 14.2782C197.764 12.8781 197.736 11.128 198.436 9.62386C200.659 9.59548 201.955 11.601 203.459 12.9349C202.768 11.3077 202.286 9.34006 200.82 8.21431C199.874 7.55211 198.682 6.90883 197.48 7.19263ZM198.332 9.63332C198.313 9.64278 198.303 9.6617 198.284 9.67116C198.294 9.6617 198.313 9.64278 198.332 9.63332ZM198.209 9.6617C198.199 9.67116 198.19 9.67116 198.18 9.68062C198.18 9.67116 198.199 9.67116 198.209 9.6617ZM190.489 17.2676C190.499 17.2676 190.508 17.2676 190.508 17.2676C190.508 17.2676 190.499 17.2676 190.489 17.2676Z" fill="white" fill-opacity="0.1"/>
</svg>
