<svg width="28" height="16" viewBox="0 0 28 16" fill="none" xmlns="http://www.w3.org/2000/svg">
<path d="M26.2314 6.70801C26.7837 6.70801 27.2314 7.15572 27.2314 7.70801C27.2314 8.26029 26.7837 8.70801 26.2314 8.70801V6.70801ZM1.08666 8.41511C0.696135 8.02459 0.696135 7.39143 1.08666 7.0009L7.45062 0.63694C7.84114 0.246416 8.47431 0.246416 8.86483 0.63694C9.25536 1.02746 9.25536 1.66063 8.86483 2.05115L3.20798 7.70801L8.86483 13.3649C9.25536 13.7554 9.25536 14.3886 8.86483 14.7791C8.47431 15.1696 7.84114 15.1696 7.45062 14.7791L1.08666 8.41511ZM26.2314 8.70801H1.79377V6.70801H26.2314V8.70801Z" fill="#231F20"/>
</svg>
